<?xml version="1.0" encoding="UTF-8"?>
<svg version="1.1" xmlns="http://www.w3.org/2000/svg" width="1024" height="1024">
<path d="M0 0 C337.92 0 675.84 0 1024 0 C1024 337.92 1024 675.84 1024 1024 C686.08 1024 348.16 1024 0 1024 C0 686.08 0 348.16 0 0 Z " fill="#D28041" transform="translate(0,0)"/>
<path d="M0 0 C337.92 0 675.84 0 1024 0 C1024 337.92 1024 675.84 1024 1024 C686.08 1024 348.16 1024 0 1024 C0 686.08 0 348.16 0 0 Z M146 40 C146 40.66 146 41.32 146 42 C138.08 42.495 138.08 42.495 130 43 C130 43.66 130 44.32 130 45 C126.7 45.33 123.4 45.66 120 46 C120 46.66 120 47.32 120 48 C119.46890625 48.12246094 118.9378125 48.24492188 118.390625 48.37109375 C115.46272452 49.14134208 112.61888994 50.09580883 109.75 51.0625 C108.67234375 51.42472656 107.5946875 51.78695312 106.484375 52.16015625 C105.66453125 52.43730469 104.8446875 52.71445312 104 53 C104 53.66 104 54.32 104 55 C103.01 55 102.02 55 101 55 C101 55.66 101 56.32 101 57 C100.14148438 57.17208984 100.14148438 57.17208984 99.265625 57.34765625 C96.78528344 58.06182356 94.93631303 59.07307872 92.75 60.4375 C92.04359375 60.86933594 91.3371875 61.30117188 90.609375 61.74609375 C90.07828125 62.15988281 89.5471875 62.57367188 89 63 C89 63.66 89 64.32 89 65 C87.7315625 65.2475 87.7315625 65.2475 86.4375 65.5 C81.61557213 67.60411398 79.24695657 70.96854385 76 75 C74.85677705 76.29397762 73.711136 77.58582501 72.5625 78.875 C70.41595872 81.09454134 70.41595872 81.09454134 70 84 C68.515 84.495 68.515 84.495 67 85 C67 85.66 67 86.32 67 87 C65.515 87.495 65.515 87.495 64 88 C64 88.99 64 89.98 64 91 C62.515 91.495 62.515 91.495 61 92 C59.11420063 95.21284338 58 97.24633583 58 101 C57.34 101 56.68 101 56 101 C55.67 103.31 55.34 105.62 55 108 C54.34 108 53.68 108 53 108 C52.18309823 110.22763988 51.37138128 112.4569486 50.5625 114.6875 C50.33240234 115.31333984 50.10230469 115.93917969 49.86523438 116.58398438 C47.6821197 122.62709892 46.87403916 127.57599729 47 134 C46.34 134 45.68 134 45 134 C44.06615244 141.58588812 43.85863657 149.0620842 43.87415886 156.69972324 C43.87270542 157.95120835 43.87125198 159.20269346 43.86975449 160.49210235 C43.8658745 163.95544645 43.86818301 167.41876251 43.87153245 170.88210613 C43.87407508 174.65393817 43.87080688 178.425766 43.86828911 182.19759744 C43.86468046 188.80481213 43.86478514 195.41201864 43.86733627 202.0192337 C43.87111958 211.84436738 43.86918459 221.66949416 43.86612797 231.49462779 C43.86086206 249.04227641 43.86131867 266.58992139 43.86420688 284.13757035 C43.8667219 299.49314155 43.86737938 314.8487114 43.86618423 330.20428276 C43.86610785 331.22264047 43.86603146 332.24099818 43.86595276 333.29021522 C43.86564143 337.42399412 43.86532303 341.55777303 43.864993 345.69155193 C43.86193371 384.47268501 43.86470797 423.25381577 43.8700899 462.03494849 C43.87483589 496.49571234 43.87441061 530.9564725 43.86962891 565.41723633 C43.86427535 604.12870876 43.86215031 642.84017914 43.86524117 681.5516519 C43.86556189 685.67761226 43.86587473 689.80357263 43.86618423 693.929533 C43.86626331 694.94545995 43.86634239 695.96138689 43.86642386 697.0080995 C43.86756174 712.35536119 43.86623031 727.7026214 43.86370468 743.04988289 C43.86084764 760.49811881 43.86155555 777.94635052 43.86698543 795.39458591 C43.86992467 805.16193632 43.8701091 814.9292776 43.86633925 824.69662777 C43.86409948 831.2184028 43.86548771 837.7401705 43.86984402 844.26194444 C43.87222588 847.97933187 43.87302969 851.69670116 43.86943804 855.41408802 C43.86560885 859.41811312 43.86950329 863.42209369 43.87415886 867.4261179 C43.87181769 868.58041454 43.86947653 869.73471119 43.86706442 870.92398652 C43.19410858 881.06604013 43.19410858 881.06604013 46 890 C46.144375 891.051875 46.28875 892.10375 46.4375 893.1875 C46.96225167 896.74415021 47.81497847 899.61884642 49 903 C49.21809326 903.62688721 49.43618652 904.25377441 49.66088867 904.8996582 C50.38448827 906.95940334 51.12800409 909.0111343 51.875 911.0625 C52.11863281 911.75666016 52.36226562 912.45082031 52.61328125 913.16601562 C54.17869906 917.43644296 55.97942707 920.52571962 59 924 C60.03432904 925.98246398 61.03238392 927.98413316 62 930 C63.30372595 932.35144753 64.65093593 934.67402747 66 937 C66.66 937 67.32 937 68 937 C68.38285156 937.85658203 68.38285156 937.85658203 68.7734375 938.73046875 C73.11295472 946.75995762 81.66699896 955.1837805 90 959 C90 959.66 90 960.32 90 961 C92.5614657 963.29648649 93.47967572 964 97 964 C97 964.66 97 965.32 97 966 C99.53682516 967.322644 102.07877651 968.63317361 104.625 969.9375 C105.69427734 970.49727539 105.69427734 970.49727539 106.78515625 971.06835938 C110.86918102 973.14783988 114.3702221 974.53994321 119 975 C119 975.66 119 976.32 119 977 C122.82320557 978.42258812 125.91281305 979.24042276 130 979 C130 979.66 130 980.32 130 981 C135.38490641 981.91657981 140.54230189 982.11138159 146 982 C146 982.66 146 983.32 146 984 C389.21 984 632.42 984 883 984 C883 983.34 883 982.68 883 982 C883.85271484 982.01740234 883.85271484 982.01740234 884.72265625 982.03515625 C891.87368567 982.11872421 898.22781306 981.47762937 905 979 C905 978.34 905 977.68 905 977 C908.3 976.34 911.6 975.68 915 975 C915.33 974.01 915.66 973.02 916 972 C918.64 971.67 921.28 971.34 924 971 C924 970.34 924 969.68 924 969 C924.598125 968.855625 925.19625 968.71125 925.8125 968.5625 C927.56150404 968.1127561 929.28677023 967.57107659 931 967 C931 966.34 931 965.68 931 965 C933.66666667 963.66666667 936.33333333 962.33333333 939 961 C939 960.34 939 959.68 939 959 C939.59385498 958.89437744 940.18770996 958.78875488 940.79956055 958.67993164 C943.32066881 957.90091394 944.3703204 956.99075009 946.20703125 955.12109375 C946.79081543 954.53303955 947.37459961 953.94498535 947.97607422 953.33911133 C948.58209473 952.71157959 949.18811523 952.08404785 949.8125 951.4375 C950.43398926 950.80287842 951.05547852 950.16825684 951.69580078 949.5144043 C960.03852155 942.28776131 960.03852155 942.28776131 964 933 C964.66 933 965.32 933 966 933 C969.2368677 928.1899061 971.7582329 922.88113134 974.4765625 917.765625 C976 915 976 915 977 914 C977.04080783 912.00041636 977.04254356 909.99954746 977 908 C977.66 908 978.32 908 979 908 C979.33 904.7 979.66 901.4 980 898 C980.66 898 981.32 898 982 898 C982 895.36 982 892.72 982 890 C982.66 890 983.32 890 984 890 C984.93351592 882.41595043 985.14136736 874.94164467 985.12584114 867.30586338 C985.12729458 866.05497747 985.12874802 864.80409155 985.13024551 863.51530001 C985.13412548 860.0536227 985.131817 856.59197343 985.12846755 853.13029659 C985.1259249 849.36024178 985.12919313 845.59019118 985.13171089 841.82013696 C985.13531955 835.21598298 985.13521485 828.61183716 985.13266373 822.0076828 C985.12888039 812.18699334 985.13081544 802.36631077 985.13387203 792.54562135 C985.13913805 775.00533376 985.13868126 757.4650498 985.13579312 739.92476186 C985.13327797 724.57437228 985.13262068 709.22398403 985.13381577 693.87359428 C985.13389215 692.85552682 985.13396854 691.83745936 985.13404724 690.78854137 C985.13435857 686.65590494 985.13467697 682.52326851 985.135007 678.39063209 C985.13806636 639.61898959 985.135292 600.84734941 985.1299101 562.07570727 C985.12516482 527.62835113 985.12558879 493.18099869 985.13037109 458.73364258 C985.1357257 420.03460284 985.13784904 381.33556515 985.13475883 342.63652509 C985.13443811 338.51109056 985.13412527 334.38565602 985.13381577 330.26022148 C985.13373669 329.24442938 985.13365761 328.22863729 985.13357614 327.18206361 C985.13243862 311.84190092 985.13376904 296.50173971 985.13629532 281.16157722 C985.13915359 263.71852218 985.13844187 246.27547136 985.13301457 228.83241684 C985.13007725 219.06993055 985.12988813 209.30745337 985.13366075 199.54496731 C985.13590285 193.0238818 985.13450804 186.50280361 985.13015598 179.98171918 C985.12777736 176.26636601 985.12696358 172.55103095 985.13056196 168.83567835 C985.13440152 164.83042975 985.13048955 160.82522548 985.12584114 156.81997776 C985.12818231 155.67093514 985.13052347 154.52189252 985.13293558 153.33803043 C985.11705534 146.50546634 984.74443669 139.79237297 984 133 C983.34 133 982.68 133 982 133 C982.061875 131.845 982.12375 130.69 982.1875 129.5 C982.17924602 124.79522883 980.84297504 121.2716413 979 117 C978.33072485 115.31353285 977.66415627 113.6259896 977 111.9375 C975.39046076 107.93222352 973.7210956 103.95851988 972 100 C971.34 100 970.68 100 970 100 C969.855625 99.21625 969.71125 98.4325 969.5625 97.625 C969.12201075 95.03578982 969.12201075 95.03578982 968 93 C967.34 93 966.68 93 966 93 C965.731875 92.443125 965.46375 91.88625 965.1875 91.3125 C962.57358818 86.22225067 959.47559589 82.1020398 955.5625 77.9375 C955.08490234 77.42123047 954.60730469 76.90496094 954.11523438 76.37304688 C952.75315158 74.90633221 951.37688723 73.45282586 950 72 C949.26652344 71.21753906 948.53304687 70.43507813 947.77734375 69.62890625 C946.15607093 67.77478292 946.15607093 67.77478292 944 68 C944 67.34 944 66.68 944 66 C942.34467377 64.98133771 940.67739862 63.98189187 939 63 C938.67 62.34 938.34 61.68 938 61 C936.25813242 59.90829363 936.25813242 59.90829363 934.1875 58.9375 C933.50042969 58.59589844 932.81335938 58.25429688 932.10546875 57.90234375 C930.08082681 57.03464006 928.14842919 56.46830928 926 56 C926 55.34 926 54.68 926 54 C919.12289319 50.40435532 912.43049667 47.23953093 905 45 C903.4221875 44.4121875 903.4221875 44.4121875 901.8125 43.8125 C898.75260398 42.92853004 896.16868212 42.84911038 893 43 C893 42.34 893 41.68 893 41 C885.75586511 40.03883046 878.66933658 39.86041988 871.36695004 39.87695217 C870.11054566 39.87579833 868.85414128 39.87464448 867.55966404 39.87345567 C864.07792197 39.87039828 860.59620927 39.87355207 857.1144694 39.87773381 C853.32456712 39.88117723 849.53466773 39.87879545 845.74476486 39.87715632 C839.1045388 39.8750848 832.4643217 39.87672257 825.82409668 39.88079453 C815.95034314 39.88683252 806.07659524 39.88713005 796.20284019 39.88625254 C779.59317122 39.88493891 762.98350623 39.888279 746.37383842 39.89426994 C729.92782001 39.90018665 713.48180324 39.90403583 697.03578377 39.90512276 C695.50202587 39.90522587 695.50202587 39.90522587 693.93728296 39.90533106 C688.74451044 39.90566939 683.55173792 39.90597078 678.3589654 39.90625793 C641.57711839 39.90835843 604.79527353 39.91509603 568.01342773 39.92456055 C532.28002941 39.93374467 496.54663169 39.94082844 460.81323242 39.94506836 C459.16108813 39.94526565 459.16108813 39.94526565 457.47556719 39.94546692 C446.41457463 39.94678544 435.35358206 39.94806126 424.29258949 39.94930578 C401.76000612 39.95184201 379.22742279 39.95466326 356.69483948 39.95765686 C355.65882426 39.95779415 354.62280905 39.95793144 353.55539943 39.95807289 C284.37026539 39.96727379 215.18513254 39.98311902 146 40 Z " fill="#010000" transform="translate(0,0)"/>
<path d="M0 0 C1.0725 0.53625 2.145 1.0725 3.25 1.625 C21.86801543 11.70975836 35.22383754 28.96398626 43.8125 48 C44.09037354 48.60336182 44.36824707 49.20672363 44.65454102 49.82836914 C49.36142963 60.73282816 50.56066174 71.91154031 50.5 83.6875 C50.49033203 85.66097412 50.49033203 85.66097412 50.48046875 87.67431641 C50.02180516 112.20980078 39.49282361 133.42091989 22.86328125 151.26171875 C3.0877728 170.1739035 -22.40719581 177.63573729 -49.2734375 177.27734375 C-71.46684774 176.53559525 -91.18120491 166.13102139 -107 151 C-108.03253906 150.07960938 -108.03253906 150.07960938 -109.0859375 149.140625 C-119.05604437 139.91926133 -125.38150298 127.60611042 -130 115 C-130.41378906 113.94554687 -130.82757812 112.89109375 -131.25390625 111.8046875 C-138.66975304 89.53130795 -135.30502877 62.10170581 -125.2421875 41.2734375 C-122.07700913 35.05681636 -118.29335797 29.49824351 -114 24 C-113.38769531 23.20464844 -112.77539062 22.40929687 -112.14453125 21.58984375 C-84.8132948 -11.45239734 -37.49764953 -18.90907113 0 0 Z " fill="#1D4C50" transform="translate(719,318)"/>
<path d="M0 0 C9.30669256 4.9082244 14.67493471 11.38997441 18.62890625 21.09765625 C22.62119997 35.91589959 18.13035619 51.89795712 14.49609375 66.31640625 C14.17406794 67.62099231 13.85239478 68.92566553 13.53125 70.23046875 C13.05800829 72.12814448 12.57525237 74.02353448 12.07421875 75.9140625 C7.73114485 93.96129527 9.21941771 115.40116683 18.80859375 131.56640625 C25.03468993 140.23990957 32.91554282 146.15544594 43.49609375 148.31640625 C52.87609711 149.15882451 61.07042564 147.28922626 68.49609375 141.31640625 C79.66169622 131.24697023 84.9041452 114.0665551 85.9140625 99.37890625 C86.51762114 84.63980924 82.57403131 74.59207958 75.01171875 62.015625 C70.74251674 54.41248431 70.46092427 45.63994157 71.85546875 37.12109375 C74.61833771 27.89908519 82.92859968 20.93642611 91.09765625 16.5 C91.88914062 16.10941406 92.680625 15.71882813 93.49609375 15.31640625 C94.49769531 14.80787109 94.49769531 14.80787109 95.51953125 14.2890625 C102.16246235 11.34719301 109.77131522 11.19250774 116.68359375 13.37890625 C123.58004489 16.38723473 128.67733642 21.36234625 131.49609375 28.31640625 C132.7652833 37.08266893 132.03242712 44.42922745 127.26171875 51.953125 C122.54722456 58.26345462 116.66008558 63.86098263 109.49609375 67.31640625 C106.72265625 67.4765625 106.72265625 67.4765625 104.49609375 67.31640625 C104.16609375 65.66640625 103.83609375 64.01640625 103.49609375 62.31640625 C104.14835937 61.86910156 104.800625 61.42179687 105.47265625 60.9609375 C108.16240552 59.10032923 110.83016172 57.21093666 113.49609375 55.31640625 C114.09808594 54.91164063 114.70007813 54.506875 115.3203125 54.08984375 C120.52545455 50.29186609 123.63851282 44.41042303 124.9453125 38.171875 C125.24436571 32.94359996 123.67231673 28.3949653 120.49609375 24.31640625 C115.64284745 20.1631474 109.86011075 19.57330194 103.65625 19.80859375 C95.00699545 21.1984616 88.23898213 25.64984304 82.80078125 32.38671875 C78.67555479 38.4881016 78.83134696 44.07150773 79.49609375 51.31640625 C80.71382662 56.13629502 83.00599966 60.35259093 85.25 64.765625 C85.55800537 65.37349854 85.86601074 65.98137207 86.18334961 66.60766602 C87.07669188 68.35457927 87.99285837 70.08976468 88.91015625 71.82421875 C95.792722 86.9794251 94.17430241 107.02756493 88.49609375 122.31640625 C88.06039062 123.52683594 87.6246875 124.73726563 87.17578125 125.984375 C82.45029076 138.03050238 76.32458342 146.67226078 64.49609375 152.31640625 C63.81160156 152.65542969 63.12710938 152.99445313 62.421875 153.34375 C54.04160753 156.80759389 42.54702573 156.83096284 34.05859375 153.75390625 C18.95273713 146.51726472 10.93628923 134.17531343 5.23828125 118.95703125 C-0.92273515 99.56921739 2.72806231 80.54145601 7.71777344 61.34912109 C13.64174533 39.75132078 13.64174533 39.75132078 9.49609375 18.31640625 C4.923416 11.31222525 -0.72202101 7.910368 -8.50390625 5.31640625 C-17.00974847 4.50190742 -24.19663002 4.38321401 -31.41015625 9.46875 C-35.96926145 13.49199022 -40.10825212 17.98594022 -40.50390625 24.31640625 C-39.34890625 24.23390625 -38.19390625 24.15140625 -37.00390625 24.06640625 C-30.68043145 24.07759824 -26.26017705 26.75103445 -21.62890625 30.87890625 C-18.95143718 33.95012077 -17.57270187 35.57341352 -17.19140625 39.69140625 C-17.61197183 44.56996703 -18.91737258 46.92217969 -22.56640625 50.12890625 C-27.45452768 52.10495534 -32.55808475 52.49132928 -37.53125 50.5078125 C-43.52894265 46.71496091 -46.77068652 40.53129275 -48.31640625 33.75390625 C-48.37828125 32.94953125 -48.44015625 32.14515625 -48.50390625 31.31640625 C-58.12775612 33.93277608 -65.57080109 38.5806279 -71.28515625 46.9140625 C-72.73011939 49.31333898 -72.73011939 49.31333898 -72.50390625 52.31640625 C-71.52550781 52.80109375 -70.54710937 53.28578125 -69.5390625 53.78515625 C-55.49769129 60.89103347 -47.22555921 69.3522791 -38.50390625 82.31640625 C-28.71959091 76.87019699 -23.01270189 71.74954964 -18.50390625 61.31640625 C-17.84542635 59.97901086 -17.18153891 58.64419998 -16.50390625 57.31640625 C-14.85390625 57.64640625 -13.20390625 57.97640625 -11.50390625 58.31640625 C-11.04967295 66.06108408 -14.57494562 71.74861882 -19.40234375 77.62890625 C-23.61917502 82.02907801 -28.17966548 85.37108157 -33.50390625 88.31640625 C-32.48760376 93.14975183 -30.36798166 97.58796129 -28.46484375 102.125 C-27.46983793 105.42955185 -27.49585289 107.06755957 -28.50390625 110.31640625 C-29.82390625 110.64640625 -31.14390625 110.97640625 -32.50390625 111.31640625 C-35.43068874 105.76561188 -37.67077955 100.31572999 -39.50390625 94.31640625 C-43.45564645 94.84376153 -45.52565503 95.80281156 -48.44140625 98.50390625 C-49.12074219 99.1278125 -49.80007813 99.75171875 -50.5 100.39453125 C-53.21207259 102.99558332 -55.87964095 105.62653432 -58.50390625 108.31640625 C-60.48390625 107.32640625 -60.48390625 107.32640625 -62.50390625 106.31640625 C-62.50390625 101.70373771 -61.057859 99.4877476 -57.94140625 96.31640625 C-54.03819215 92.64611451 -49.8859382 89.39315208 -45.50390625 86.31640625 C-50.85642349 74.037102 -60.47252262 65.89354006 -72.50390625 60.31640625 C-75.2396321 59.61733211 -75.2396321 59.61733211 -77.50390625 59.31640625 C-78.49034263 64.43924391 -78.81357678 69.49389554 -79.06640625 74.69140625 C-79.10958984 75.52285156 -79.15277344 76.35429687 -79.19726562 77.2109375 C-79.3025243 79.24593853 -79.40363697 81.28115328 -79.50390625 83.31640625 C-81.16005282 83.69859392 -82.82847649 84.03035727 -84.50390625 84.31640625 C-86.70667427 82.11363823 -85.68920662 77.14770372 -85.69140625 74.19140625 C-85.70365234 73.34835937 -85.71589844 72.5053125 -85.72851562 71.63671875 C-85.74056176 66.46491301 -85.18249359 62.21283889 -83.50390625 57.31640625 C-93.90290237 58.59716496 -100.55905226 61.44455771 -107.27734375 69.5703125 C-110.48214488 74.13256125 -110.85506775 77.91341532 -110.81640625 83.44140625 C-110.81447266 84.57340454 -110.81447266 84.57340454 -110.8125 85.72827148 C-110.71152846 91.62059191 -109.76461239 96.8395765 -107.50390625 102.31640625 C-106.53710938 102.46335937 -105.5703125 102.6103125 -104.57421875 102.76171875 C-95.35096492 104.30070759 -87.345569 106.4747435 -80.50390625 113.31640625 C-80.37890625 115.94140625 -80.37890625 115.94140625 -80.50390625 118.31640625 C-82.2265625 118.9921875 -82.2265625 118.9921875 -84.50390625 119.31640625 C-86.6875 118.171875 -86.6875 118.171875 -88.94140625 116.50390625 C-97.17069917 110.47863265 -105.62471205 110.34439696 -115.50390625 111.31640625 C-121.9055945 112.87483473 -125.7814917 117.07487548 -129.50390625 122.31640625 C-130.12265625 123.18265625 -130.74140625 124.04890625 -131.37890625 124.94140625 C-133.55304197 131.46381342 -133.74634272 139.22988781 -131.00390625 145.62890625 C-130.26140625 146.95921875 -130.26140625 146.95921875 -129.50390625 148.31640625 C-128.93542969 148.1565625 -128.36695313 147.99671875 -127.78125 147.83203125 C-122.8468776 146.71481486 -118.13063917 146.57082033 -113.50390625 148.69140625 C-111.50390625 150.31640625 -111.50390625 150.31640625 -110.50390625 152.31640625 C-110.15887527 156.04274084 -110.01841702 158.45576625 -111.87890625 161.75390625 C-115.90726331 164.15173783 -119.92726441 163.92286418 -124.50390625 163.31640625 C-126.19102367 162.70333445 -127.86526109 162.04925292 -129.50390625 161.31640625 C-129.75473928 172.05519518 -127.71213549 178.31589319 -120.50390625 186.31640625 C-118.66505353 188.15525897 -115.61008242 187.84096064 -113.12890625 188.12890625 C-95.97717763 190.52945245 -82.72071637 199.16681488 -72.22412109 213.00341797 C-62.93883823 226.08473219 -56.74110704 239.04966453 -58.50390625 255.31640625 C-59.38668248 258.1863225 -60.41118336 260.65942098 -61.82421875 263.30078125 C-62.72670682 265.32198105 -62.72670682 265.32198105 -61.84765625 267.390625 C-60.37970373 269.49440579 -58.90022531 270.80453224 -56.87890625 272.37890625 C-48.62349989 279.39301056 -43.3755171 288.77616834 -38.50390625 298.31640625 C-34.22815167 296.97863274 -30.28428766 295.32957114 -26.25390625 293.37890625 C-20.74498694 290.8118248 -15.40562013 288.75375915 -9.50390625 287.31640625 C-8.7253125 287.11144531 -7.94671875 286.90648437 -7.14453125 286.6953125 C12.93880381 282.17344358 32.97102859 285.78590551 50.62548828 296.10546875 C55.85935722 299.49361674 60.19601687 303.83998552 64.49609375 308.31640625 C65.38167969 309.19039062 65.38167969 309.19039062 66.28515625 310.08203125 C77.92962582 322.41146962 83.16321783 338.80397703 82.96704102 355.47241211 C82.64332868 363.9224204 81.02607882 370.94757117 75.18359375 377.31640625 C69.72100586 382.14246377 64.22542014 383.98662484 56.98828125 383.72265625 C51.81257891 382.87896809 48.10273865 380.40664327 44.92578125 376.2734375 C41.45407766 370.82782244 40.29225531 366.98383544 40.24609375 360.50390625 C40.21515625 359.4355957 40.21515625 359.4355957 40.18359375 358.34570312 C40.15039534 353.85976774 40.49721477 350.7543103 43.49609375 347.31640625 C44.81609375 347.31640625 46.13609375 347.31640625 47.49609375 347.31640625 C48.47929756 351.35846638 48.37388812 354.62693973 47.80859375 358.69140625 C47.25251667 363.6621928 47.99025854 366.52553595 50.5859375 370.7578125 C51.49609375 372.31640625 51.49609375 372.31640625 51.49609375 374.31640625 C56.26697737 376.29457751 59.47311022 376.57215213 64.49609375 375.31640625 C70.16691313 372.53659283 72.23704133 368.95824486 74.49609375 363.31640625 C78.28210933 351.95835952 74.71639235 338.87259702 69.58691406 328.47314453 C67.48212057 324.56715417 65.0722143 320.92397158 62.49609375 317.31640625 C61.96371094 316.56875 61.43132812 315.82109375 60.8828125 315.05078125 C51.71637235 303.49606265 36.06918774 295.34473401 21.49609375 293.31640625 C3.1082486 292.14862505 -19.75409119 293.84749043 -34.50390625 306.31640625 C-34.31054688 306.92226563 -34.1171875 307.528125 -33.91796875 308.15234375 C-28.55366915 325.41370384 -28.01731562 341.0308933 -33.50390625 358.31640625 C-35.140625 361.30859375 -35.140625 361.30859375 -36.50390625 363.31640625 C-38.15390625 362.98640625 -39.80390625 362.65640625 -41.50390625 362.31640625 C-41.71049157 357.83816959 -41.10293144 354.51587724 -39.56640625 350.31640625 C-35.05508352 337.89814152 -36.556903 327.9595083 -39.50390625 315.31640625 C-39.84451436 313.65121106 -40.18083359 311.98509224 -40.50390625 310.31640625 C-54.80979307 318.56763625 -64.7914199 329.23870164 -74.50390625 342.31640625 C-75.39916016 343.50943359 -75.39916016 343.50943359 -76.3125 344.7265625 C-76.70566406 345.25121094 -77.09882813 345.77585937 -77.50390625 346.31640625 C-79.15390625 345.98640625 -80.80390625 345.65640625 -82.50390625 345.31640625 C-82.12575854 339.61565116 -80.58746606 336.38990734 -76.81640625 332.25390625 C-76.33308838 331.70589355 -75.84977051 331.15788086 -75.35180664 330.59326172 C-73.75885522 328.81155525 -72.13819458 327.06024787 -70.50390625 325.31640625 C-69.64780762 324.4025415 -69.64780762 324.4025415 -68.77441406 323.47021484 C-55.1124051 309.04752339 -55.1124051 309.04752339 -46.50390625 304.31640625 C-45.84390625 304.31640625 -45.18390625 304.31640625 -44.50390625 304.31640625 C-49.05182911 294.32832498 -53.57318568 286.0951973 -61.50390625 278.31640625 C-62.01179688 277.73890625 -62.5196875 277.16140625 -63.04296875 276.56640625 C-64.38390343 274.97870971 -64.38390343 274.97870971 -66.50390625 273.31640625 C-69.51165593 273.7274031 -71.84567227 274.97427125 -74.50390625 276.37890625 C-80.08126661 278.89056522 -85.48116068 279.31436118 -91.50390625 278.31640625 C-94.75390625 276.25390625 -94.75390625 276.25390625 -96.50390625 273.31640625 C-97.1954195 269.01365716 -97.0194803 267.10695313 -94.62890625 263.44140625 C-91.24028192 260.05278192 -89.14045592 260.15638607 -84.44140625 260.12890625 C-78.81215044 260.16017989 -73.92473911 260.84634988 -68.50390625 262.31640625 C-65.34711018 252.58084716 -64.60960785 241.16465835 -69.1171875 231.73828125 C-77.74716729 216.66620388 -88.48120927 202.57597079 -105.5703125 196.9765625 C-112.10307681 195.50647306 -119.4575196 194.79902996 -125.56640625 198.00390625 C-129.57310135 201.15811303 -133.12648918 204.47412956 -133.8203125 209.69921875 C-133.90152344 210.60414063 -133.98273438 211.5090625 -134.06640625 212.44140625 C-134.15019531 213.35148438 -134.23398437 214.2615625 -134.3203125 215.19921875 C-134.41119141 216.24722656 -134.41119141 216.24722656 -134.50390625 217.31640625 C-133.37855469 217.22939453 -133.37855469 217.22939453 -132.23046875 217.140625 C-123.38762742 216.75082721 -117.34290261 218.39042807 -110.43359375 223.99609375 C-105.10970678 229.00812123 -102.38444379 233.45471744 -102.06640625 240.87890625 C-102.16772059 244.60727397 -102.37684413 246.10171508 -104.31640625 249.37890625 C-107.9777612 252.62182063 -110.3663518 253.84170502 -115.328125 253.6875 C-122.68734468 252.43233686 -128.99018164 245.89104904 -133.50390625 240.31640625 C-136.0003648 236.15152243 -137.96934379 231.92009364 -139.50390625 227.31640625 C-144.27842686 228.05094788 -147.86538902 230.41264603 -151 234.0546875 C-155.57621885 240.93846146 -155.54235352 248.3105991 -154.50390625 256.31640625 C-152.48702434 263.66112072 -146.20651361 266.88538892 -139.92578125 270.48046875 C-138.7965625 271.08632813 -137.66734375 271.6921875 -136.50390625 272.31640625 C-135.4984375 272.86039063 -134.49296875 273.404375 -133.45703125 273.96484375 C-128.01494211 276.68588832 -124.4285239 278.11955075 -118.50390625 276.31640625 C-118.17390625 275.98640625 -117.84390625 275.65640625 -117.50390625 275.31640625 C-115.50432261 275.27559842 -113.50345371 275.27386269 -111.50390625 275.31640625 C-110.81640625 277.06640625 -110.81640625 277.06640625 -110.50390625 279.31640625 C-111.984375 281.45703125 -111.984375 281.45703125 -113.50390625 283.31640625 C-112.76785156 283.87328125 -112.03179687 284.43015625 -111.2734375 285.00390625 C-105.47374705 289.53946338 -100.66392958 293.58596694 -97.50390625 300.31640625 C-97.14039063 301.05375 -96.776875 301.79109375 -96.40234375 302.55078125 C-95.23290339 306.15062374 -95.17413755 309.57255194 -95.19140625 313.31640625 C-95.17529297 314.01507812 -95.15917969 314.71375 -95.14257812 315.43359375 C-95.13834368 319.92210361 -95.82984694 322.70395673 -98.50390625 326.31640625 C-100.15390625 325.98640625 -101.80390625 325.65640625 -103.50390625 325.31640625 C-103.33890625 324.36765625 -103.17390625 323.41890625 -103.00390625 322.44140625 C-101.7748419 313.18617928 -101.98388216 306.2249023 -107.50390625 298.31640625 C-111.17905935 294.37450817 -115.55137363 290.51753186 -120.50390625 288.31640625 C-125.34681528 288.81670677 -127.62659431 292.14550638 -130.59765625 295.6875 C-137.46688776 305.16084591 -137.5310377 316.05600225 -136.50390625 327.31640625 C-134.37694952 340.14359146 -125.62571823 350.80385547 -118.50390625 361.31640625 C-117.84390625 362.30640625 -117.18390625 363.29640625 -116.50390625 364.31640625 C-112.26379229 363.84528248 -108.21215721 363.25656643 -104.06640625 362.25390625 C-90.17051687 359.4490349 -76.75905969 360.70817211 -64.50390625 368.12890625 C-60.62410979 370.95249678 -57.89109282 373.64957992 -56.50390625 378.31640625 C-55.74809541 383.24906644 -55.82981899 387.68983204 -58.12890625 392.19140625 C-60.8813814 395.81308408 -62.2972661 397.50319929 -66.50390625 399.31640625 C-78.82390625 400.43640625 -78.82390625 400.43640625 -83.50390625 397.31640625 C-83.69140625 394.69140625 -83.69140625 394.69140625 -83.50390625 392.31640625 C-80.03824791 391.39223069 -76.99053175 391.35187576 -73.44140625 391.50390625 C-70.1392228 391.51867011 -68.79723008 391.48401987 -65.87890625 389.81640625 C-63.94847717 386.30653519 -63.6214804 383.16838692 -64.50390625 379.31640625 C-68.81406624 373.61178273 -74.71036114 371.04855654 -81.625 369.66796875 C-92.19662765 368.37699658 -102.42867506 368.66059882 -112.50390625 372.31640625 C-112.00890625 374.17265625 -112.00890625 374.17265625 -111.50390625 376.06640625 C-109.88786629 383.56860633 -108.96801694 391.16034293 -112.56640625 398.19140625 C-115.25646265 402.30516938 -118.02504864 406.09790668 -122.50390625 408.31640625 C-127.87071664 409.32414794 -132.08043881 409.00272091 -137.00390625 406.62890625 C-140.28569595 403.59325078 -142.20593685 400.97025191 -143.0078125 396.51953125 C-143.16241404 388.72761367 -141.76182025 384.09904079 -136.50390625 378.31640625 C-128.43216736 370.11919991 -128.43216736 370.11919991 -123.50390625 369.31640625 C-126.14766516 363.43105351 -129.23682302 358.1131283 -133.00390625 352.87890625 C-143.55916424 338.10458817 -146.4876957 322.97841372 -144.07421875 305.140625 C-141.9523076 296.92804296 -136.52495414 290.11249191 -130.50390625 284.31640625 C-131.97150391 283.57197266 -131.97150391 283.57197266 -133.46875 282.8125 C-144.253677 277.26100943 -153.87572106 271.85630728 -160.50390625 261.31640625 C-161.06658203 260.42888672 -161.06658203 260.42888672 -161.640625 259.5234375 C-164.21498222 252.94193601 -163.30976997 243.41477694 -160.94140625 236.87890625 C-157.69591209 230.04748148 -153.6383051 225.09313533 -146.62890625 222.12890625 C-144.26033481 221.08710427 -144.26033481 221.08710427 -142.50390625 219.31640625 C-141.7994078 216.0302331 -141.75250198 212.96272459 -141.70703125 209.60546875 C-141.3265759 203.44501864 -138.69162933 199.29158672 -134.171875 195.2109375 C-131.99621381 193.49439222 -129.79757405 191.87050361 -127.50390625 190.31640625 C-129.09563781 186.94871494 -131.03760841 184.14864518 -133.28515625 181.1953125 C-136.16179657 176.76049201 -136.77824785 173.00560623 -136.75390625 167.75390625 C-136.7590625 166.63886719 -136.76421875 165.52382813 -136.76953125 164.375 C-136.5120176 161.40980603 -135.93062222 159.86166755 -134.50390625 157.31640625 C-134.68591143 153.94931049 -135.83312584 151.60764797 -137.50390625 148.75390625 C-141.42496243 142.01459095 -141.44233248 134.4141284 -140.04296875 126.8125 C-137.34522922 117.68779278 -131.44773315 111.31624761 -123.50390625 106.31640625 C-119.98646881 104.55768753 -118.53928367 104.31640625 -114.50390625 104.31640625 C-114.97828125 103.28515625 -115.45265625 102.25390625 -115.94140625 101.19140625 C-119.71385354 92.99043388 -120.20339248 80.97891856 -117.59765625 72.296875 C-116.39992684 69.79776652 -115.09127033 67.58587373 -113.50390625 65.31640625 C-113.06949219 64.67316406 -112.63507813 64.02992188 -112.1875 63.3671875 C-107.78432778 57.58410376 -101.35823873 53.60118374 -94.50390625 51.31640625 C-92.10899639 51.24670573 -89.71222934 51.23192622 -87.31640625 51.25390625 C-86.04410156 51.26292969 -84.77179688 51.27195312 -83.4609375 51.28125 C-81.99720703 51.29865234 -81.99720703 51.29865234 -80.50390625 51.31640625 C-80.40207031 50.58035156 -80.30023438 49.84429687 -80.1953125 49.0859375 C-78.15604 40.91732619 -68.97804381 32.11187515 -61.984375 27.7421875 C-57.56805796 25.43140092 -53.5369764 23.71375389 -48.50390625 23.31640625 C-48.31957031 22.62675781 -48.13523437 21.93710937 -47.9453125 21.2265625 C-44.79961419 11.03449997 -39.0605275 5.05004358 -29.87890625 -0.24609375 C-20.30055363 -4.62651234 -9.61108295 -4.09863419 0 0 Z " fill="#254E50" transform="translate(485.50390625,261.68359375)"/>
<path d="M0 0 C1.2981665 0.0002417 1.2981665 0.0002417 2.62255859 0.00048828 C11.4987218 0.14534922 20.2623422 1.1605916 29.0625 2.25 C29.77866486 2.33695129 30.49482971 2.42390259 31.23269653 2.51348877 C33.28427897 2.76658448 35.33365597 3.03270973 37.3828125 3.3046875 C38.57406738 3.46179199 39.76532227 3.61889648 40.99267578 3.78076172 C43.9375 4.375 43.9375 4.375 46.9375 6.375 C46.6075 8.025 46.2775 9.675 45.9375 11.375 C38.78496004 10.95031794 31.77285187 10.37530278 24.6875 9.3125 C-0.1825613 5.93094817 -23.72349147 8.26249834 -45.0078125 22.3203125 C-47.48173099 24.2358544 -49.7768819 26.2391293 -52.0625 28.375 C-53.33867187 29.51582031 -53.33867187 29.51582031 -54.640625 30.6796875 C-65.2208684 40.59470602 -72.37357754 53.07402203 -73.265625 67.70703125 C-73.35871331 74.61883814 -73.40304107 81.14757158 -70.0625 87.375 C-69.06493012 88.37742423 -68.06530503 89.37781292 -67.0625 90.375 C-67.0625 91.035 -67.0625 91.695 -67.0625 92.375 C-60.4998115 95.90875535 -54.47666754 97.17954239 -47.0625 96.375 C-44.07357398 95.12961416 -42.64869648 94.32034502 -40.953125 91.5859375 C-38.70718723 86.01049548 -39.73834314 79.2847493 -41.0625 73.5625 C-43.31292565 63.28881766 -43.24766672 52.71954165 -38.0625 43.375 C-32.2662823 34.93188373 -24.66849907 29.47631839 -14.7578125 26.73828125 C3.52469233 24.27411756 21.52634737 26.98697474 36.9375 37.375 C44.92778661 43.51479185 52.9394477 50.96781811 56.9375 60.375 C59.83297269 59.23435924 62.63079401 58.04073324 65.4375 56.6875 C68.99536734 55.35329975 70.40895949 55.19881983 73.9375 56.375 C74.5625 58.25 74.5625 58.25 74.9375 60.375 C72.68904923 62.62345077 70.94851083 63.29879464 68 64.4375 C67.12472656 64.77910156 66.24945312 65.12070312 65.34765625 65.47265625 C63.55739093 66.14291766 61.75102426 66.77049191 59.9375 67.375 C60.23732788 68.44923218 60.23732788 68.44923218 60.54321289 69.54516602 C62.56195121 77.12692223 63.6395844 84.51351283 64.375 92.3125 C65.79734325 109.62148091 65.79734325 109.62148091 73.9375 124.375 C82.39676941 129.57198572 91.01768068 131.90284245 100.6875 133.75 C101.96882812 134.00910156 103.25015625 134.26820313 104.5703125 134.53515625 C107.68967491 135.1636845 110.81319162 135.7715377 113.9375 136.375 C115.2575 130.105 116.5775 123.835 117.9375 117.375 C114.9675 117.045 111.9975 116.715 108.9375 116.375 C102.31686554 113.13847965 96.78589872 107.08703144 94.125 100.25 C92.16743252 93.58977042 91.2853381 85.70135141 94.625 79.375 C99.75062781 72.72553689 99.75062781 72.72553689 104.08203125 72.03125 C108.83992627 71.84188104 112.1759251 72.24035425 115.9375 75.375 C121.87996964 80.88265479 124.48248657 88.50758187 125.10498047 96.53466797 C125.26699943 101.15673686 125.15093524 105.75649852 124.9375 110.375 C131.62765334 107.65358169 134.91282812 104.97539735 137.9375 98.375 C138.77771688 96.03910909 139.38139559 93.80163743 139.9375 91.375 C141.59364657 90.99281233 143.26207024 90.66104898 144.9375 90.375 C145.9375 91.375 145.9375 91.375 146.1875 94.5625 C145.64464793 102.84099404 139.93463386 109.05359953 133.9375 114.375 C130.99354398 115.86251925 128.17609481 116.7778123 124.9375 117.375 C124.45756844 119.91652435 123.97853273 122.45821222 123.5 125 C123.29793945 126.06927734 123.29793945 126.06927734 123.09179688 127.16015625 C122.82662878 128.57007442 122.56790958 129.981222 122.31591797 131.39355469 C121.97682024 133.16911413 121.5468129 134.92674314 121.10546875 136.6796875 C120.62844364 139.43386393 120.62844364 139.43386393 122.484375 141.28125 C123.21140625 141.8071875 123.9384375 142.333125 124.6875 142.875 C129.0139458 146.34674584 131.43861005 149.01316204 132.28125 154.69140625 C132.62055742 160.24756529 131.74613529 164.19608201 128.4921875 168.74609375 C125.06397263 172.33796712 121.32026688 173.29957635 116.5 173.5625 C115.654375 173.500625 114.80875 173.43875 113.9375 173.375 C113.2775 172.055 112.6175 170.735 111.9375 169.375 C114.43395479 166.87854521 116.75493317 166.31792131 120.0625 165.25390625 C122.29017006 164.40711154 122.29017006 164.40711154 123.9375 161.375 C124.4829104 158.30921943 124.47558365 155.4420768 123.9375 152.375 C121.40781526 149.09324682 119.86018669 147.68256223 115.9375 146.375 C115.68226563 147.09816406 115.42703125 147.82132813 115.1640625 148.56640625 C110.96886858 158.17259869 102.68411637 165.31855287 93.375 169.75 C85.29896673 172.71162699 75.79790321 172.76788267 67.6875 169.875 C41.20098471 157.33570289 32.1169787 129.64272298 21.9375 104.375 C21.37482422 104.51502441 20.81214844 104.65504883 20.23242188 104.79931641 C9.51250745 107.3442835 -1.32322138 108.28719081 -11.0625 102.375 C-11.0625 100.725 -11.0625 99.075 -11.0625 97.375 C-8.8125 96.75 -8.8125 96.75 -6.0625 96.375 C-5.51078125 96.69210937 -4.9590625 97.00921875 -4.390625 97.3359375 C-1.01039516 98.84456357 2.30574681 98.66447558 5.9375 98.625 C6.6490625 98.63273438 7.360625 98.64046875 8.09375 98.6484375 C11.86179832 98.63437762 14.74239203 98.47178961 17.9375 96.375 C17.08110064 90.20453283 13.67238338 86.19542875 9.9375 81.375 C9.46828125 80.75238281 8.9990625 80.12976563 8.515625 79.48828125 C2.67197568 72.74923405 -6.21263731 69.26902637 -14.0625 65.375 C-14.0625 63.725 -14.0625 62.075 -14.0625 60.375 C-10.59593991 59.18213427 -9.16060405 59.33727639 -5.6796875 60.67578125 C-4.42131121 61.32551466 -3.17423249 61.99745859 -1.9375 62.6875 C-1.27806396 63.05214355 -0.61862793 63.41678711 0.06079102 63.79248047 C11.98307316 70.64197396 18.88010349 79.32963273 24.9375 91.375 C33.82431154 88.29526014 39.27772942 79.91973866 44.95703125 72.79296875 C46.9375 70.375 46.9375 70.375 48.6953125 68.71484375 C50.22778217 67.35850541 50.22778217 67.35850541 50 64.75 C46.71608397 54.31873731 38.34810469 46.17499259 28.86328125 41.1015625 C15.31182192 34.28046977 0.22596857 30.44044034 -14.94140625 34.0625 C-17.16692474 34.99141206 -19.0554946 36.04254828 -21.0625 37.375 C-21.76632812 37.7875 -22.47015625 38.2 -23.1953125 38.625 C-28.89373842 42.32582274 -32.25162431 46.80531144 -34.0625 53.375 C-34.69577737 60.06774193 -34.95824886 67.04499846 -33.0625 73.5625 C-31.31511718 80.22439702 -31.02373756 87.31338439 -33.25 93.875 C-37.12846839 99.22461157 -40.67462023 102.38533253 -47.0625 104.375 C-55.64823942 105.39911598 -62.22751595 103.53417576 -69.25 98.625 C-74.84404504 94.18493282 -78.26556249 89.31842958 -80.0625 82.375 C-81.8530746 63.47712551 -78.69980247 47.2754948 -66.55078125 32.2734375 C-53.32651819 17.05138498 -37.64441179 7.26442668 -18.0625 2.375 C-17.38243896 2.19984863 -16.70237793 2.02469727 -16.00170898 1.84423828 C-10.61865392 0.53568256 -5.53424296 -0.01001975 0 0 Z " fill="#254E4F" transform="translate(528.0625,431.625)"/>
<path d="M0 0 C1.61629555 -0.00287018 1.61629555 -0.00287018 3.26524353 -0.00579834 C5.53514847 -0.00715206 7.80506136 -0.00351283 10.07495117 0.00488281 C13.49351058 0.01551973 16.91153562 0.00499749 20.33007812 -0.0078125 C80.64429424 -0.05198547 132.84132422 21.63231857 175.28515625 63.953125 C177.46484375 66.265625 177.46484375 66.265625 179.46484375 69.265625 C179.08984375 71.953125 179.08984375 71.953125 178.46484375 74.265625 C176.37109375 74.69140625 176.37109375 74.69140625 173.46484375 74.265625 C171.00032224 72.26717119 169.02341533 69.85834574 166.96484375 67.453125 C147.57911682 45.79228181 123.59932834 31.23273442 96.46484375 21.265625 C95.71477051 20.98589844 94.96469727 20.70617187 94.19189453 20.41796875 C81.58814635 15.76842386 68.66923342 12.68839816 55.46484375 10.265625 C54.50425049 10.07653564 53.54365723 9.88744629 52.55395508 9.69262695 C41.47302709 7.78212213 30.33923896 7.92855286 19.12573242 7.94995117 C15.67008824 7.95310879 12.21530444 7.92959149 8.75976562 7.90429688 C-3.70945215 7.86880824 -15.3559206 8.51199422 -27.53515625 11.265625 C-28.98558605 11.57091484 -30.4364431 11.874181 -31.88769531 12.17553711 C-67.70508913 19.70911076 -100.77299511 37.39972708 -127.04785156 62.82958984 C-128.61143791 64.33927712 -130.19445645 65.82698915 -131.77734375 67.31640625 C-164.81060504 98.84152159 -182.36151574 148.14468317 -183.72265625 193.3515625 C-183.86644068 201.53580278 -183.55408107 209.23506573 -182 217.2890625 C-176.82479537 250.42776777 -204.43627188 281.59080833 -221.63623047 307.703125 C-222.2448291 308.62996094 -222.85342773 309.55679687 -223.48046875 310.51171875 C-224.02203613 311.33341553 -224.56360352 312.1551123 -225.12158203 313.00170898 C-227.81693936 317.2626192 -227.81693936 317.2626192 -228.59765625 322.140625 C-226.88374022 327.1815545 -222.96897172 330.01466028 -218.29321289 332.41796875 C-215.89265627 333.44667193 -213.47780242 334.40393265 -211.03515625 335.328125 C-196.91203699 340.73864067 -196.91203699 340.73864067 -192.59765625 347.140625 C-190.0440776 354.65115043 -192.24971472 360.40696604 -195.53515625 367.265625 C-196.19515625 368.255625 -196.85515625 369.245625 -197.53515625 370.265625 C-198.11341721 373.22044745 -198.11341721 373.22044745 -197.53515625 376.265625 C-195.40572092 378.53733919 -195.40572092 378.53733919 -192.59765625 380.328125 C-187.75725942 383.6571743 -187.75725942 383.6571743 -186.60546875 386.8125 C-186.4991434 390.52207336 -188.31294577 392.40849724 -190.53515625 395.265625 C-191.19515625 395.925625 -191.85515625 396.585625 -192.53515625 397.265625 C-193.10924333 400.13277776 -193.10924333 400.13277776 -192.53515625 403.265625 C-190.44751157 406.00368269 -190.44751157 406.00368269 -187.66015625 408.390625 C-180.84116498 414.62679651 -180.84116498 414.62679651 -180.234375 419.859375 C-180.21306484 425.14429499 -180.52772114 429.74856877 -182.03515625 434.828125 C-183.55390313 440.29561378 -183.87115444 445.43965505 -183.91015625 451.078125 C-183.93045898 452.27900757 -183.93045898 452.27900757 -183.95117188 453.50415039 C-183.90610148 459.51291027 -182.92105043 464.24435682 -179.09765625 469.0859375 C-162.64542314 482.82355215 -140.59603284 481.71331129 -120.38085938 481.70141602 C-103.15838235 481.7232203 -87.83138907 483.1727876 -74.72265625 495.578125 C-67.00387727 503.76511414 -64.64458423 513.70618512 -61.53515625 524.265625 C-61.31682129 525.00683594 -61.09848633 525.74804688 -60.87353516 526.51171875 C-60.00317565 529.47235211 -59.13490831 532.43358697 -58.26977539 535.39575195 C-56.80504379 540.39692133 -55.22928912 545.3387265 -53.53515625 550.265625 C-52.06233635 554.62916598 -50.60349212 558.99691069 -49.16259766 563.37109375 C-48.56962217 565.16155671 -47.96485697 566.9481026 -47.359375 568.734375 C-45.10842412 575.61000678 -43.82514134 582.03049711 -43.53515625 589.265625 C-45.18515625 589.595625 -46.83515625 589.925625 -48.53515625 590.265625 C-51.90551482 585.56096025 -52.86957938 580.53881144 -54.22265625 575.015625 C-57.52706545 562.20828966 -61.46474339 549.61387178 -65.52627563 537.02868652 C-66.23690967 534.82288107 -66.94251161 532.61544771 -67.64291382 530.40637207 C-68.64590152 527.24910555 -69.66793777 524.0986226 -70.6953125 520.94921875 C-70.99214935 520.00624435 -71.28898621 519.06326996 -71.59481812 518.09172058 C-74.78200404 508.47940044 -79.51065536 500.33418029 -88.53515625 495.265625 C-97.13095415 491.49892704 -104.74936504 490.13157185 -114.05078125 490.0546875 C-115.96224751 490.02657587 -117.87370571 489.99791124 -119.78515625 489.96875 C-122.76626984 489.92788617 -125.74723993 489.89096466 -128.72851562 489.86425781 C-168.62993688 489.47673564 -168.62993688 489.47673564 -182.296875 476.6796875 C-190.78386923 467.5261754 -193.30419948 459.95700923 -192.87109375 447.5234375 C-192.48748495 441.2876945 -191.34765601 434.89062452 -188.53515625 429.265625 C-187.81483221 424.86182575 -187.53286096 420.90035449 -189.921875 417.00390625 C-191.70594353 414.97215792 -193.5552966 413.10611565 -195.53515625 411.265625 C-196.49591881 410.30972706 -197.45462915 409.35175637 -198.41015625 408.390625 C-199.11140625 407.689375 -199.81265625 406.988125 -200.53515625 406.265625 C-202.15272514 403.03048721 -202.12733186 399.76198099 -201.53515625 396.265625 C-200.3965564 394.21534905 -199.13264901 392.50707468 -197.62890625 390.7109375 C-196.33400869 389.30190901 -196.33400869 389.30190901 -196.53515625 387.265625 C-198.25870625 385.78613651 -198.25870625 385.78613651 -200.41015625 384.328125 C-203.2101166 382.36614562 -204.59578387 381.17468357 -206.53515625 378.265625 C-207.48368295 370.79597723 -205.42366409 366.72345626 -201.87109375 360.21875 C-199.94617897 355.96367522 -200.07549866 352.86220091 -200.53515625 348.265625 C-201.16808594 348.01296875 -201.80101562 347.7603125 -202.453125 347.5 C-203.47019531 347.09265625 -204.48726563 346.6853125 -205.53515625 346.265625 C-206.21658691 345.99556641 -206.89801758 345.72550781 -207.60009766 345.44726562 C-210.02108582 344.48236786 -212.43440688 343.4997049 -214.84765625 342.515625 C-215.66427734 342.19335938 -216.48089844 341.87109375 -217.32226562 341.5390625 C-225.03520399 338.36784641 -232.91048432 334.11908084 -236.53515625 326.265625 C-238.3725853 317.12683315 -234.24417837 310.86193417 -229.34716797 303.47314453 C-227.47249648 300.66790636 -225.5884032 297.86912813 -223.69873047 295.07397461 C-213.6065964 280.04271408 -204.08677915 264.44616968 -195.59765625 248.453125 C-195.20304199 247.71392822 -194.80842773 246.97473145 -194.40185547 246.21313477 C-191.05884364 239.7467085 -189.25153194 233.80844301 -189.28515625 226.453125 C-189.28 225.33292969 -189.27484375 224.21273437 -189.26953125 223.05859375 C-189.48026953 220.04937513 -189.87942718 217.48523834 -190.52734375 214.56640625 C-191.74620149 208.78502325 -191.91916096 203.16100982 -191.91015625 197.265625 C-191.90773926 195.58460693 -191.90773926 195.58460693 -191.90527344 193.86962891 C-191.65336179 176.15431306 -188.62291793 158.23558982 -183.53515625 141.265625 C-183.30489746 140.48477539 -183.07463867 139.70392578 -182.83740234 138.89941406 C-174.1195823 109.82506375 -159.7486197 82.28195569 -137.53515625 61.265625 C-136.66890625 60.399375 -135.80265625 59.533125 -134.91015625 58.640625 C-133.73453125 57.465 -133.73453125 57.465 -132.53515625 56.265625 C-132.04756836 55.75845947 -131.55998047 55.25129395 -131.05761719 54.72875977 C-126.79048883 50.34323926 -122.28987588 46.51310832 -117.41015625 42.828125 C-116.6615332 42.26174316 -115.91291016 41.69536133 -115.14160156 41.11181641 C-108.84393414 36.40268918 -102.41320413 32.08734387 -95.53515625 28.265625 C-94.76155762 27.83507812 -93.98795898 27.40453125 -93.19091797 26.9609375 C-81.94277192 20.7621495 -70.74559451 15.26657671 -58.53515625 11.265625 C-57.34647949 10.87334717 -57.34647949 10.87334717 -56.13378906 10.47314453 C-34.21040199 3.28813336 -34.21040199 3.28813336 -26.66015625 2.765625 C-23.36633182 2.5360902 -20.28800394 1.98897128 -17.07592773 1.26074219 C-11.35332354 0.10836304 -5.8222652 -0.02332352 0 0 Z " fill="#244D4E" transform="translate(510.53515625,218.734375)"/>
<path d="M0 0 C5.07631182 4.54366225 7.92030828 10.80131845 8.9765625 17.48828125 C9.28719287 27.12932766 7.04336231 36.45117478 0.31640625 43.62890625 C-3.29917696 46.682403 -7.39027743 48.95873509 -11.54296875 51.19921875 C-11.30320312 52.22789062 -11.30320312 52.22789062 -11.05859375 53.27734375 C-8.8319558 65.89495878 -10.92170927 75.80278464 -17.9453125 86.25390625 C-19.62464003 88.29866202 -21.3685395 89.70576626 -23.54296875 91.19921875 C-22.02869173 95.5060586 -18.79819766 97.39324459 -15.16796875 99.82421875 C-10.21444735 103.2492655 -5.42058811 106.78060829 -0.79296875 110.63671875 C0.17125 111.43980469 1.13546875 112.24289062 2.12890625 113.0703125 C4.45703125 115.19921875 4.45703125 115.19921875 6.45703125 118.19921875 C6.08203125 120.88671875 6.08203125 120.88671875 5.45703125 123.19921875 C0.92253637 122.71051877 -0.97855324 121.19593977 -4.16796875 118.01171875 C-9.31296907 113.18915714 -14.68355502 108.78553205 -20.29296875 104.51171875 C-21.09686035 103.87532471 -21.90075195 103.23893066 -22.72900391 102.58325195 C-27.40222776 99.04657202 -27.40222776 99.04657202 -33.05859375 98.1171875 C-36.39137961 99.15214454 -39.70067939 100.22815731 -42.99511719 101.37890625 C-49.03418001 103.32325764 -55.29731596 104.54925963 -61.48046875 105.94921875 C-67.12627926 107.26156211 -72.31439535 108.68231236 -77.54296875 111.19921875 C-76.17907759 114.38390462 -74.80256175 115.95898871 -72.04296875 118.01171875 C-67.93594321 121.46432814 -65.10604098 125.38655016 -62.16796875 129.82421875 C-61.73935547 130.46979736 -61.31074219 131.11537598 -60.86914062 131.78051758 C-57.61296564 136.81992874 -55.19036444 141.02864327 -55.54296875 147.19921875 C-56.86296875 147.52921875 -58.18296875 147.85921875 -59.54296875 148.19921875 C-59.96707031 147.43738281 -60.39117188 146.67554688 -60.828125 145.890625 C-64.62179235 139.21210292 -68.67337652 133.13060176 -73.54296875 127.19921875 C-74.24421875 126.27109375 -74.94546875 125.34296875 -75.66796875 124.38671875 C-77.80667773 121.89155827 -79.76035238 119.96380474 -82.54296875 118.19921875 C-85.06539687 118.21265545 -85.06539687 118.21265545 -87.54296875 119.19921875 C-92.29178563 124.5170183 -94.42079313 131.22278713 -96 138.046875 C-96.54296875 140.19921875 -96.54296875 140.19921875 -97.54296875 141.19921875 C-100.04296875 141.32421875 -100.04296875 141.32421875 -102.54296875 141.19921875 C-102.87296875 140.86921875 -103.20296875 140.53921875 -103.54296875 140.19921875 C-103.02177093 129.25406451 -98.90345164 120.97668514 -92.54296875 112.19921875 C-94.62515924 111.38379444 -96.70876636 110.57198686 -98.79296875 109.76171875 C-99.953125 109.30925781 -101.11328125 108.85679687 -102.30859375 108.390625 C-110.33493952 105.43406043 -121.07749661 104.11405762 -129.10546875 107.76171875 C-134.18971718 110.87429786 -138.27881554 115.68874542 -140.54296875 121.19921875 C-141.53538261 128.8936483 -140.03301312 134.27261032 -135.91796875 140.76171875 C-131.78009129 145.00848772 -126.74494603 148.07576095 -121.48046875 150.76171875 C-120.84109375 151.23609375 -120.20171875 151.71046875 -119.54296875 152.19921875 C-119.23046875 154.88671875 -119.23046875 154.88671875 -119.54296875 157.19921875 C-122.73966432 158.21608352 -124.20876925 158.33105469 -127.375 157.08203125 C-136.33284912 151.79889612 -144.01700508 145.66272436 -147.91796875 135.71875 C-149.73898642 128.37777254 -149.77159282 120.56362935 -145.80078125 113.96875 C-145.38570313 113.38480469 -144.970625 112.80085937 -144.54296875 112.19921875 C-143.88941406 111.27689453 -143.88941406 111.27689453 -143.22265625 110.3359375 C-138.31965916 104.07992755 -132.17720372 100.31201441 -124.54296875 98.19921875 C-112.55099174 97.24323465 -103.27778246 99.1876629 -92.4375 104.078125 C-86.92126451 106.21533442 -86.92126451 106.21533442 -81.26171875 105.34375 C-80.52953125 104.90417969 -79.79734375 104.46460938 -79.04296875 104.01171875 C-70.0801116 99.1669311 -60.31947672 97.19293336 -50.3203125 95.703125 C-46.21465358 94.95821642 -42.45611373 93.63403857 -38.54296875 92.19921875 C-41.83560437 88.84144106 -45.2358577 85.71018751 -48.79296875 82.63671875 C-58.84909545 73.51699251 -67.83805883 62.26936045 -68.81640625 48.29296875 C-69.23730853 34.8093788 -66.66734044 24.54017334 -57.54296875 14.19921875 C-56.9809375 13.544375 -56.41890625 12.88953125 -55.83984375 12.21484375 C-41.8292309 -2.97313152 -18.42223109 -13.04554306 0 0 Z " fill="#254E4F" transform="translate(620.54296875,633.80078125)"/>
<path d="M0 0 C6.88265757 -0.07673368 13.76520284 -0.12888367 20.64819336 -0.16479492 C22.98449831 -0.1797826 25.32077562 -0.20017967 27.65698242 -0.22631836 C62.5079701 -0.60618593 62.5079701 -0.60618593 75.875 11.73046875 C84.16439408 20.78663179 85.55568184 30.48709824 85.34375 42.3671875 C84.89057203 51.63845352 80.47152047 60.39519878 74 67 C63.01683526 76.57963659 49.61716505 77.58816041 35.6875 77.25 C30.840625 77.1675 25.99375 77.085 21 77 C21 89.21 21 101.42 21 114 C17.720625 114.020625 14.44125 114.04125 11.0625 114.0625 C10.02746338 114.071604 8.99242676 114.08070801 7.92602539 114.09008789 C7.11641357 114.09258545 6.30680176 114.09508301 5.47265625 114.09765625 C4.64000244 114.10289307 3.80734863 114.10812988 2.94946289 114.11352539 C1 114 1 114 0 113 C-0.09565123 111.5325104 -0.12188309 110.06043116 -0.12025452 108.58982849 C-0.12162918 107.63765442 -0.12300385 106.68548035 -0.12442017 105.70445251 C-0.12082489 104.65141434 -0.11722961 103.59837616 -0.11352539 102.51342773 C-0.11367142 101.41112823 -0.11381744 100.30882874 -0.1139679 99.17312622 C-0.11326821 95.50992908 -0.10547324 91.84678206 -0.09765625 88.18359375 C-0.09579227 85.65153532 -0.09436827 83.11947652 -0.09336853 80.5874176 C-0.08993346 74.59151751 -0.08204269 68.59563911 -0.07201904 62.59974772 C-0.06085677 55.77518942 -0.05534717 48.95063028 -0.05032361 42.12606514 C-0.03986004 28.08403336 -0.0222613 14.04201767 0 0 Z " fill="#F5F7F7" transform="translate(645,355)"/>
<path d="M0 0 C1.2981665 0.0002417 1.2981665 0.0002417 2.62255859 0.00048828 C11.4987218 0.14534922 20.2623422 1.1605916 29.0625 2.25 C29.77866486 2.33695129 30.49482971 2.42390259 31.23269653 2.51348877 C33.28427897 2.76658448 35.33365597 3.03270973 37.3828125 3.3046875 C38.57406738 3.46179199 39.76532227 3.61889648 40.99267578 3.78076172 C43.9375 4.375 43.9375 4.375 46.9375 6.375 C46.6075 8.025 46.2775 9.675 45.9375 11.375 C38.78496004 10.95031794 31.77285187 10.37530278 24.6875 9.3125 C-0.1825613 5.93094817 -23.72349147 8.26249834 -45.0078125 22.3203125 C-47.48173099 24.2358544 -49.7768819 26.2391293 -52.0625 28.375 C-53.33867187 29.51582031 -53.33867187 29.51582031 -54.640625 30.6796875 C-65.2208684 40.59470602 -72.37357754 53.07402203 -73.265625 67.70703125 C-73.35871331 74.61883814 -73.40304107 81.14757158 -70.0625 87.375 C-69.06493012 88.37742423 -68.06530503 89.37781292 -67.0625 90.375 C-67.0625 91.035 -67.0625 91.695 -67.0625 92.375 C-60.4998115 95.90875535 -54.47666754 97.17954239 -47.0625 96.375 C-44.07357398 95.12961416 -42.64869648 94.32034502 -40.953125 91.5859375 C-38.70718723 86.01049548 -39.73834314 79.2847493 -41.0625 73.5625 C-43.31292565 63.28881766 -43.24766672 52.71954165 -38.0625 43.375 C-32.2662823 34.93188373 -24.66849907 29.47631839 -14.7578125 26.73828125 C3.52469233 24.27411756 21.52634737 26.98697474 36.9375 37.375 C44.92778661 43.51479185 52.9394477 50.96781811 56.9375 60.375 C59.83297269 59.23435924 62.63079401 58.04073324 65.4375 56.6875 C68.99536734 55.35329975 70.40895949 55.19881983 73.9375 56.375 C74.5625 58.25 74.5625 58.25 74.9375 60.375 C72.68904923 62.62345077 70.94851083 63.29879464 68 64.4375 C67.12472656 64.77910156 66.24945312 65.12070312 65.34765625 65.47265625 C63.55739093 66.14291766 61.75102426 66.77049191 59.9375 67.375 C60.23732788 68.44923218 60.23732788 68.44923218 60.54321289 69.54516602 C62.56190199 77.12673735 63.64063006 84.51350282 64.375 92.3125 C65.48551502 102.96166718 66.91345492 112.77349162 71.9375 122.375 C69.4625 122.87 69.4625 122.87 66.9375 123.375 C67.2675 124.695 67.5975 126.015 67.9375 127.375 C58.49038816 118.9135318 57.85893729 105.06268408 56.6875 93.1875 C56.45044775 90.94104449 56.20844606 88.69520538 55.9631958 86.44963074 C55.74629752 84.44236699 55.54220816 82.43373124 55.33886719 80.42504883 C55.11817427 77.46410182 55.11817427 77.46410182 53.9375 75.375 C53.2775 75.375 52.6175 75.375 51.9375 75.375 C50.52579235 76.97175178 49.18350532 78.63013602 47.875 80.3125 C42.24193142 87.35156798 36.20582369 93.98237275 28.9375 99.375 C30.92562817 105.67073922 33.25246433 111.78435744 35.77978516 117.88110352 C37.46628519 122.00141823 38.78481237 126.0841341 39.9375 130.375 C38.9475 131.365 37.9575 132.355 36.9375 133.375 C33.9375 132.375 33.9375 132.375 32.49536133 129.69116211 C32.0083374 128.52335205 31.52131348 127.35554199 31.01953125 126.15234375 C30.62636971 125.22223228 30.62636971 125.22223228 30.2252655 124.27333069 C29.38989171 122.29052113 28.5698464 120.30177319 27.75 118.3125 C27.18654444 116.96768056 26.62210325 115.62327363 26.05664062 114.27929688 C24.67212207 110.98257572 23.30128168 107.680362 21.9375 104.375 C21.37482422 104.51502441 20.81214844 104.65504883 20.23242188 104.79931641 C9.51250745 107.3442835 -1.32322138 108.28719081 -11.0625 102.375 C-11.0625 100.725 -11.0625 99.075 -11.0625 97.375 C-8.8125 96.75 -8.8125 96.75 -6.0625 96.375 C-5.51078125 96.69210937 -4.9590625 97.00921875 -4.390625 97.3359375 C-1.01039516 98.84456357 2.30574681 98.66447558 5.9375 98.625 C6.6490625 98.63273438 7.360625 98.64046875 8.09375 98.6484375 C11.86179832 98.63437762 14.74239203 98.47178961 17.9375 96.375 C17.08110064 90.20453283 13.67238338 86.19542875 9.9375 81.375 C9.46828125 80.75238281 8.9990625 80.12976563 8.515625 79.48828125 C2.67197568 72.74923405 -6.21263731 69.26902637 -14.0625 65.375 C-14.0625 63.725 -14.0625 62.075 -14.0625 60.375 C-10.59593991 59.18213427 -9.16060405 59.33727639 -5.6796875 60.67578125 C-4.42131121 61.32551466 -3.17423249 61.99745859 -1.9375 62.6875 C-1.27806396 63.05214355 -0.61862793 63.41678711 0.06079102 63.79248047 C11.98307316 70.64197396 18.88010349 79.32963273 24.9375 91.375 C33.82431154 88.29526014 39.27772942 79.91973866 44.95703125 72.79296875 C46.9375 70.375 46.9375 70.375 48.6953125 68.71484375 C50.22778217 67.35850541 50.22778217 67.35850541 50 64.75 C46.71608397 54.31873731 38.34810469 46.17499259 28.86328125 41.1015625 C15.31182192 34.28046977 0.22596857 30.44044034 -14.94140625 34.0625 C-17.16692474 34.99141206 -19.0554946 36.04254828 -21.0625 37.375 C-21.76632812 37.7875 -22.47015625 38.2 -23.1953125 38.625 C-28.89373842 42.32582274 -32.25162431 46.80531144 -34.0625 53.375 C-34.69577737 60.06774193 -34.95824886 67.04499846 -33.0625 73.5625 C-31.31511718 80.22439702 -31.02373756 87.31338439 -33.25 93.875 C-37.12846839 99.22461157 -40.67462023 102.38533253 -47.0625 104.375 C-55.64823942 105.39911598 -62.22751595 103.53417576 -69.25 98.625 C-74.84404504 94.18493282 -78.26556249 89.31842958 -80.0625 82.375 C-81.8530746 63.47712551 -78.69980247 47.2754948 -66.55078125 32.2734375 C-53.32651819 17.05138498 -37.64441179 7.26442668 -18.0625 2.375 C-17.38243896 2.19984863 -16.70237793 2.02469727 -16.00170898 1.84423828 C-10.61865392 0.53568256 -5.53424296 -0.01001975 0 0 Z " fill="#254F4F" transform="translate(528.0625,431.625)"/>
<path d="M0 0 C4.60489322 2.46617615 8.31112018 6.67302161 10.6328125 11.31640625 C11.34202664 20.94535205 10.91001271 28.50208073 4.7578125 36.12890625 C2.3040525 38.78309714 0.00980406 40.89451507 -3.3671875 42.31640625 C-6.24328472 42.07138377 -7.20056721 41.4962845 -9.18359375 39.35546875 C-9.75980469 38.55882812 -10.33601562 37.7621875 -10.9296875 36.94140625 C-14.55785483 31.52694164 -14.55785483 31.52694164 -20.0546875 28.62890625 C-20.8178125 28.52578125 -21.5809375 28.42265625 -22.3671875 28.31640625 C-21.19095408 34.05054417 -17.96555145 37.26331372 -14.046875 41.36328125 C-12.3671875 43.31640625 -12.3671875 43.31640625 -12.3671875 45.31640625 C-17.96011151 45.62147483 -22.06223182 44.97648515 -27.3125 43.05078125 C-29.63286553 42.22144908 -31.93614963 41.70850913 -34.3671875 41.31640625 C-34.6971875 42.63640625 -35.0271875 43.95640625 -35.3671875 45.31640625 C-28.56068473 50.00533038 -23.39051281 50.56721543 -15.3515625 50.921875 C-9.46858047 51.21501328 -9.46858047 51.21501328 -8.3671875 52.31640625 C-7.51494038 64.05226829 -8.20530565 72.45737637 -15.8671875 81.81640625 C-18.23403693 84.52752469 -19.75980826 85.8572003 -23.3671875 86.31640625 C-25.65651987 84.57518124 -27.58811541 82.8882443 -29.6171875 80.87890625 C-30.193479 80.32412598 -30.76977051 79.7693457 -31.36352539 79.19775391 C-32.51525926 78.08556801 -33.66193669 76.96811944 -34.80322266 75.84521484 C-36.1085458 74.56923397 -37.44344862 73.32360318 -38.78515625 72.0859375 C-46.63604819 64.72098085 -52.49399151 55.65310988 -52.85058594 44.73071289 C-52.93713471 31.81840003 -49.87499644 23.4640681 -40.8671875 14.06640625 C-30.10549943 3.46764414 -15.38984429 -4.44426196 0 0 Z " fill="#D08040" transform="translate(611.3671875,635.68359375)"/>
<path d="M0 0 C0.99 0.33 1.98 0.66 3 1 C4.77692609 7.05285071 5.38993003 13.11274985 5.98754883 19.37768555 C7.51338333 38.36889229 7.51338333 38.36889229 17.03149414 54.39672852 C25.14542009 61.00520572 35.21836617 63.38174377 45.25 65.375 C46.48363281 65.63410156 47.71726562 65.89320313 48.98828125 66.16015625 C51.98945165 66.78830819 54.99284874 67.40126502 58 68 C55.47011597 76.30917366 48.7698501 84.11209547 41.3125 88.75 C34.43047382 91.51700022 25.12880563 91.15428975 18.09375 89.1875 C-2.95901216 79.59383623 -11.74298691 56.91397275 -20 37 C-20.43828125 36.02546875 -20.8765625 35.0509375 -21.328125 34.046875 C-21.71484375 33.16515625 -22.1015625 32.2834375 -22.5 31.375 C-22.8403125 30.61960937 -23.180625 29.86421875 -23.53125 29.0859375 C-24 27 -24 27 -23.4375 25.0390625 C-21.48614704 22.27111075 -19.0495396 20.19322512 -16.5 18 C-10.29633011 12.51366488 -5.1257948 6.49796554 0 0 Z " fill="#D28140" transform="translate(580,506)"/>
<path d="M0 0 C3.6492251 2.99942081 6.9567638 6.2674753 10.22705078 9.671875 C11.11263672 10.54585937 11.11263672 10.54585937 12.01611328 11.4375 C23.66058285 23.76693837 28.89417486 40.15944578 28.69799805 56.82788086 C28.37428571 65.27788915 26.75703586 72.30303992 20.91455078 78.671875 C15.45196289 83.49793252 9.95637717 85.34209359 2.71923828 85.078125 C-2.45646406 84.23443684 -6.16630432 81.76211202 -9.34326172 77.62890625 C-12.81496531 72.18329119 -13.97678766 68.33930419 -14.02294922 61.859375 C-14.04357422 61.14716797 -14.06419922 60.43496094 -14.08544922 59.70117188 C-14.11864763 55.21523649 -13.7718282 52.10977905 -10.77294922 48.671875 C-9.45294922 48.671875 -8.13294922 48.671875 -6.77294922 48.671875 C-5.7897454 52.71393513 -5.89515485 55.98240848 -6.46044922 60.046875 C-7.0165263 65.01766155 -6.27878443 67.8810047 -3.68310547 72.11328125 C-2.77294922 73.671875 -2.77294922 73.671875 -2.77294922 75.671875 C1.9979344 77.65004626 5.20406725 77.92762088 10.22705078 76.671875 C15.89787016 73.89206158 17.96799836 70.31371361 20.22705078 64.671875 C24.01306636 53.31382827 20.44734938 40.22806577 15.31787109 29.82861328 C13.21307761 25.92262292 10.80317133 22.27944033 8.22705078 18.671875 C7.69466797 17.92421875 7.16228516 17.1765625 6.61376953 16.40625 C-2.55267062 4.8515314 -18.19985523 -3.29979724 -32.77294922 -5.328125 C-51.16079437 -6.4959062 -74.02313416 -4.79704082 -88.77294922 7.671875 C-88.57958984 8.27773438 -88.38623047 8.88359375 -88.18701172 9.5078125 C-82.82271212 26.76917259 -82.28635859 42.38636205 -87.77294922 59.671875 C-89.40966797 62.6640625 -89.40966797 62.6640625 -90.77294922 64.671875 C-92.42294922 64.341875 -94.07294922 64.011875 -95.77294922 63.671875 C-95.97953454 59.19363834 -95.37197441 55.87134599 -93.83544922 51.671875 C-89.32412648 39.25361027 -90.82594596 29.31497705 -93.77294922 16.671875 C-94.11355732 15.00667981 -94.44987655 13.34056099 -94.77294922 11.671875 C-109.07883604 19.923105 -119.06046287 30.59417039 -128.77294922 43.671875 C-129.36978516 44.46722656 -129.96662109 45.26257813 -130.58154297 46.08203125 C-130.97470703 46.60667969 -131.36787109 47.13132812 -131.77294922 47.671875 C-133.42294922 47.341875 -135.07294922 47.011875 -136.77294922 46.671875 C-136.39480151 40.97111991 -134.85650903 37.74537609 -131.08544922 33.609375 C-130.60213135 33.0613623 -130.11881348 32.51334961 -129.62084961 31.94873047 C-128.02789818 30.167024 -126.40723755 28.41571662 -124.77294922 26.671875 C-124.2022168 26.06263184 -123.63148438 25.45338867 -123.04345703 24.82568359 C-109.38144807 10.40299214 -109.38144807 10.40299214 -100.77294922 5.671875 C-100.11294922 5.671875 -99.45294922 5.671875 -98.77294922 5.671875 C-98.77294922 4.351875 -98.77294922 3.031875 -98.77294922 1.671875 C-98.11294922 1.671875 -97.45294922 1.671875 -96.77294922 1.671875 C-96.44294922 -0.308125 -96.11294922 -2.288125 -95.77294922 -4.328125 C-94.78294922 -3.008125 -93.79294922 -1.688125 -92.77294922 -0.328125 C-88.49719464 -1.66589851 -84.55333062 -3.31496011 -80.52294922 -5.265625 C-75.01402991 -7.83270645 -69.6746631 -9.8907721 -63.77294922 -11.328125 C-62.99435547 -11.53308594 -62.21576172 -11.73804688 -61.41357422 -11.94921875 C-40.54456349 -16.64798669 -17.30127483 -12.96047027 0 0 Z " fill="#254F50" transform="translate(539.77294921875,560.328125)"/>
<path d="M0 0 C4.55555556 0.55555556 4.55555556 0.55555556 6 2 C4.84815369 23.50113114 -3.82549655 45.35968866 -13.97460938 64.10546875 C-15.01633156 66.03017451 -16.03131831 67.96763514 -17.046875 69.90625 C-22.76676083 80.62409432 -29.71715383 90.29820076 -37 100 C-37.50966309 100.680625 -38.01932617 101.36125 -38.54443359 102.0625 C-40.02817562 104.04275655 -41.51399096 106.02144432 -43 108 C-44.48991851 109.98770517 -45.97967716 111.97552839 -47.46875 113.96386719 C-48.50587168 115.34294799 -49.54768976 116.71850722 -50.59375 118.09082031 C-62.10253561 133.21685044 -71.65031324 149.1854876 -78.5625 166.9375 C-78.87292236 167.72809814 -79.18334473 168.51869629 -79.50317383 169.33325195 C-84.22152019 182.16499681 -85.58220999 194.96454728 -85.5 208.5 C-85.49923462 209.23512817 -85.49846924 209.97025635 -85.49768066 210.72766113 C-85.44826783 223.9724501 -83.68964346 236.24914313 -80 249 C-79.7922998 249.73702148 -79.58459961 250.47404297 -79.37060547 251.23339844 C-78.51804196 254.25491157 -77.64376748 257.26363038 -76.69921875 260.2578125 C-76.00972474 262.96186165 -75.8627089 265.22366878 -76 268 C-77.65 268.33 -79.3 268.66 -81 269 C-94.9249952 240.11852847 -98.49599743 205.93324946 -90 175 C-89.81808105 174.3311377 -89.63616211 173.66227539 -89.44873047 172.97314453 C-81.95673602 146.39966287 -65.85030117 123.49827073 -49 102.0625 C-42.90252091 94.29559015 -37.25931433 86.35579441 -32 78 C-31.61505371 77.39091797 -31.23010742 76.78183594 -30.83349609 76.15429688 C-22.03524962 62.13312822 -14.72013753 47.54055065 -9 32 C-8.74887451 31.32106689 -8.49774902 30.64213379 -8.23901367 29.94262695 C-5.83988165 23.15775813 -4.65407901 16.27851708 -3.45117188 9.20117188 C-3.29068359 8.30076172 -3.13019531 7.40035156 -2.96484375 6.47265625 C-2.8268335 5.66062744 -2.68882324 4.84859863 -2.54663086 4.01196289 C-2 2 -2 2 0 0 Z " fill="#254D4E" transform="translate(730,488)"/>
<path d="M0 0 C1.67542976 0.28604898 3.34385343 0.61781233 5 1 C4.75078945 8.3517111 2.57049137 13.6243866 -0.72265625 20.1796875 C-2.20628341 22.93944877 -2.20628341 22.93944877 -2 26 C-0.47015442 27.6333031 -0.47015442 27.6333031 1.5625 29.1875 C14.82975376 40.4028762 25.60211994 57.26854703 27.17700195 74.99194336 C27.67320227 91.97939073 24.65483545 104.15564978 14.75 118.1875 C4.37413559 128.79917951 -7.99369164 133.45018571 -22.625 133.625 C-36.02326361 133.45269417 -45.87881631 128.789449 -56 120 C-58.328125 117.42578125 -58.328125 117.42578125 -60 115 C-59.75 112.1875 -59.75 112.1875 -59 110 C-57.02 109.505 -57.02 109.505 -55 109 C-54.41605469 109.76183594 -54.41605469 109.76183594 -53.8203125 110.5390625 C-47.33890222 118.51388529 -39.21829743 124.13642482 -28.76025391 125.23535156 C-15.47629475 125.98763118 -4.78193876 124.99658398 5.875 116.3125 C15.0844733 107.3861389 20.03327323 95.35081358 20.5 82.5625 C19.8168101 64.22656466 10.51419248 46.69808144 -2.75 34.3125 C-5.60064951 31.77065995 -5.60064951 31.77065995 -7.94140625 32.12109375 C-10.56377362 33.24070031 -12.14135995 34.76721948 -14.1875 36.75 C-21.17049252 43.08367674 -26.84085169 46.88183038 -36.5390625 46.43359375 C-39.92114835 45.83770243 -41.74545822 44.55514735 -44 42 C-45.85714672 38.28570656 -45.44347927 34.05377529 -45 30 C-42.60760989 25.12320478 -39.28431045 22.19044396 -35 19 C-26.77243078 16.25747693 -16.70079832 17.22818041 -9 21 C-8.71125 20.278125 -8.4225 19.55625 -8.125 18.8125 C-6.41666667 14.54166667 -4.70833333 10.27083333 -3 6 C-2.4740625 4.63875 -2.4740625 4.63875 -1.9375 3.25 C-1 1 -1 1 0 0 Z " fill="#254E4F" transform="translate(510,590)"/>
<path d="M0 0 C1.18529297 0.29197266 1.18529297 0.29197266 2.39453125 0.58984375 C18.7038564 4.9304358 33.57408414 15.06554252 42.23828125 29.6953125 C42.99969174 31.04266171 43.75359178 32.39428226 44.5 33.75 C44.86311279 34.40049316 45.22622559 35.05098633 45.6003418 35.72119141 C48.06756586 40.41067554 48.06756586 40.41067554 47.71875 43.453125 C47.36296875 44.21882813 47.36296875 44.21882813 47 45 C44.734375 44.90234375 44.734375 44.90234375 42 44 C40.52196576 41.8400272 39.39370973 39.88706662 38.25 37.5625 C28.97789231 20.21404392 14.65907254 11.95120448 -3.58203125 6.18359375 C-21.71523675 1.76613483 -39.79622172 5.91648252 -55.6953125 14.90234375 C-57.33113281 15.94068359 -57.33113281 15.94068359 -59 17 C-59.58249512 17.34909424 -60.16499023 17.69818848 -60.76513672 18.05786133 C-63.13660594 19.68188499 -64.82931807 21.09284892 -65.37451172 23.99047852 C-65.3668585 26.30659711 -65.1676812 28.51533772 -64.875 30.8125 C-64.80023437 31.60076172 -64.72546875 32.38902344 -64.6484375 33.20117188 C-64.46071293 35.13708149 -64.23417047 37.06915803 -64 39 C-66.375 39.625 -66.375 39.625 -69 40 C-71.76223278 37.23776722 -71.57856291 34.79293383 -72 31 C-82.70613136 44.08527166 -83.18428056 66.01508075 -81.609375 81.953125 C-79.64419651 96.63771031 -75.5954854 111.98806177 -69.89282227 125.65307617 C-68.79679179 128.53416476 -68.85786189 130.94403057 -69 134 C-70.65 134 -72.3 134 -74 134 C-80.35960741 121.96217169 -83.84625412 109.1808665 -87 96 C-87.18981445 95.24259521 -87.37962891 94.48519043 -87.57519531 93.70483398 C-92.01722549 74.28996066 -91.5462276 47.89926562 -80.97265625 30.453125 C-79 27.5 -79 27.5 -77.125 25.15625 C-75.70795873 23.00805589 -75.70795873 23.00805589 -76.58203125 20.4453125 C-80.16407786 14.26800898 -86.27760272 10.1228623 -93 8 C-95.36406246 7.67620927 -97.69980322 7.44390102 -100.08203125 7.30859375 C-102 7 -102 7 -104 5 C-103.625 2.375 -103.625 2.375 -103 0 C-93.62828127 -0.44627232 -86.58792029 1.26690467 -79 7 C-78.46246094 7.39316406 -77.92492187 7.78632813 -77.37109375 8.19140625 C-73.91861722 10.8452376 -72.4326751 12.95201707 -71 17 C-69.51113281 15.91332031 -69.51113281 15.91332031 -67.9921875 14.8046875 C-47.8902753 0.39100851 -24.63410133 -7.03199661 0 0 Z " fill="#234D4F" transform="translate(607,252)"/>
<path d="M0 0 C0.66 0 1.32 0 2 0 C2.24492187 0.47566406 2.48984375 0.95132813 2.7421875 1.44140625 C6.94847638 9.31731957 11.99843322 16.61715629 17 24 C17.66 24.99 18.32 25.98 19 27 C23.24011396 26.52887623 27.29174904 25.94016018 31.4375 24.9375 C45.33338938 22.13262865 58.74484656 23.39176586 71 30.8125 C74.87979646 33.63609053 77.61281343 36.33317367 79 41 C79.75581084 45.93266019 79.67408726 50.37342579 77.375 54.875 C74.62252485 58.49667783 73.20664015 60.18679304 69 62 C56.68 63.12 56.68 63.12 52 60 C51.8125 57.375 51.8125 57.375 52 55 C55.46565834 54.07582444 58.5133745 54.03546951 62.0625 54.1875 C65.36468345 54.20226386 66.70667617 54.16761362 69.625 52.5 C71.55542908 48.99012894 71.88242585 45.85198067 71 42 C66.68984001 36.29537648 60.79354511 33.73215029 53.87890625 32.3515625 C43.3072786 31.06059033 33.07523119 31.34419257 23 35 C23.33 36.2375 23.66 37.475 24 38.75 C25.61603996 46.25220008 26.53588931 53.84393668 22.9375 60.875 C20.2474436 64.98876313 17.47885761 68.78150043 13 71 C7.63318961 72.00774169 3.42346744 71.68631466 -1.5 69.3125 C-4.7817897 66.27684453 -6.7020306 63.65384566 -7.50390625 59.203125 C-7.65850779 51.41120742 -6.257914 46.78263454 -1 41 C7.07173889 32.80279366 7.07173889 32.80279366 12 32 C8.24658756 23.6444135 3.3248368 16.40140715 -2 9 C-1.34 8.34 -0.68 7.68 0 7 C-0.33 6.01 -0.66 5.02 -1 4 C-0.5625 1.8125 -0.5625 1.8125 0 0 Z " fill="#254E50" transform="translate(350,599)"/>
<path d="M0 0 C5.79898773 4.27459258 10.18040567 8.26677317 13 15 C13.1875 18.875 13.1875 18.875 13 22 C13.53109375 21.51789063 14.0621875 21.03578125 14.609375 20.5390625 C15.66898438 19.59160156 15.66898438 19.59160156 16.75 18.625 C17.79414063 17.68527344 17.79414063 17.68527344 18.859375 16.7265625 C20.84508688 15.12494817 22.67954093 14.03479932 25 13 C25.99 13.66 26.98 14.32 28 15 C26.5979354 21.95001916 21.61847565 25.75789876 15.97924805 29.55224609 C5.36457068 36.40881056 -2.11533565 39.15228706 -15 38 C-21.61132812 36.38867188 -21.61132812 36.38867188 -24 34 C-24.04063832 32.33382885 -24.042721 30.66611905 -24 29 C-21.42420908 28.04600336 -20.35771835 27.84515725 -17.7890625 28.95703125 C-14.41414164 30.21908149 -11.66005117 30.30078159 -8.0625 30.3125 C-6.87785156 30.32925781 -5.69320312 30.34601563 -4.47265625 30.36328125 C-0.66341533 29.96478923 1.74847043 28.99162243 5 27 C6.6262833 23.7474334 6.54123397 20.51483705 6 17 C3.3325742 10.6502254 -1.93788096 7.67792637 -8 5 C-8.69351563 4.67902344 -9.38703125 4.35804688 -10.1015625 4.02734375 C-20.68863396 0.005753 -34.66982005 0.29786373 -45.25 4.125 C-54.3173593 8.28135676 -60.15892675 13.20566278 -65 22 C-67.14740092 28.44220275 -66.80698881 35.0797091 -64.125 41.3125 C-61.05596313 46.82799769 -56.61142624 49.40471536 -51 52 C-49.8553125 52.54140625 -49.8553125 52.54140625 -48.6875 53.09375 C-42.67314554 55.12184627 -36.35872621 55.1339931 -30.0703125 55.02734375 C-28.60156468 55.01471826 -27.13281457 55.00235584 -25.6640625 54.99023438 C-23.37948266 54.96527304 -21.09502507 54.93706682 -18.81054688 54.90405273 C-16.58462721 54.87397914 -14.35886943 54.8561369 -12.1328125 54.83984375 C-11.10318893 54.81965431 -11.10318893 54.81965431 -10.05276489 54.79905701 C-8.36720246 54.79008428 -6.68176131 54.88650932 -5 55 C-3 57 -3 57 -3 59 C-4 61 -4 61 -6.3359375 62.11328125 C-11.4605477 63.35345877 -16.3726381 63.25418511 -21.625 63.1875 C-22.70297852 63.1774292 -23.78095703 63.1673584 -24.89160156 63.15698242 C-27.92821051 63.11951896 -30.96383059 63.06305315 -34 63 C-35.26070313 62.98195313 -36.52140625 62.96390625 -37.8203125 62.9453125 C-49.21018351 62.42897168 -59.93885823 57.54703054 -67.6875 49.1875 C-74.00018328 41.56200206 -74.85461076 34.68960083 -74 25 C-72.23353161 15.62657765 -64.66445691 7.29432365 -57 2 C-41.43147622 -7.18798125 -15.82941192 -10.14585453 0 0 Z " fill="#264E4F" transform="translate(463,393)"/>
<path d="M0 0 C4.269375 -0.0825 8.53875 -0.165 12.9375 -0.25 C14.26515381 -0.28641602 15.59280762 -0.32283203 16.96069336 -0.36035156 C25.20702356 -0.43706737 31.75401087 0.3539876 38.15625 5.8515625 C38.5996875 6.43679688 39.043125 7.02203125 39.5 7.625 C39.9640625 8.21539062 40.428125 8.80578125 40.90625 9.4140625 C44.43335049 14.52835821 43.58106341 21.04573227 43 27 C40.79139388 33.01180753 36.60880344 36.72948661 31.26855469 40.08935547 C28.18571725 41.32686985 25.58238163 41.22440686 22.265625 41.1953125 C21.09805664 41.19031738 19.93048828 41.18532227 18.72753906 41.18017578 C17.24995117 41.16196777 15.77236328 41.14375977 14.25 41.125 C9.5475 41.08375 4.845 41.0425 0 41 C0 27.47 0 13.94 0 0 Z " fill="#1F4F54" transform="translate(666,373)"/>
<path d="M0 0 C-0.53710807 3.83648622 -0.85421624 6.09158977 -3.9609375 8.5546875 C-5.54951912 9.53105826 -7.14209154 10.50096107 -8.73828125 11.46484375 C-12.95670865 14.32812867 -15.4443035 17.99094342 -16.8125 22.9375 C-16.9053125 23.9584375 -16.9053125 23.9584375 -17 25 C-15.845 24.9175 -14.69 24.835 -13.5 24.75 C-7.1765252 24.76119199 -2.7562708 27.4346282 1.875 31.5625 C4.55246907 34.63371452 5.93120438 36.25700727 6.3125 40.375 C5.89193442 45.25356078 4.58653367 47.60577344 0.9375 50.8125 C-3.95062143 52.78854909 -9.0541785 53.17492303 -14.02734375 51.19140625 C-20.0250364 47.39855466 -23.26678027 41.2148865 -24.8125 34.4375 C-24.874375 33.633125 -24.93625 32.82875 -25 32 C-36.06771717 35.0089041 -43.05231461 41.0265658 -50 50 C-50.66 49.34 -51.32 48.68 -52 48 C-54.10820797 48.3185177 -54.10820797 48.3185177 -56 49 C-52.80772477 39.52451637 -43.27134785 30.68191382 -34.4375 26.1875 C-31.26185517 25.09045906 -28.32898393 24.40597365 -25 24 C-24.81566406 23.31035156 -24.63132812 22.62070312 -24.44140625 21.91015625 C-21.59379351 12.68389098 -16.43605441 6.56050123 -8.25 1.4375 C-5.14159692 0.06262941 -3.33895053 -0.40472128 0 0 Z " fill="#244E50" transform="translate(462,261)"/>
<path d="M0 0 C3.54980644 0.43290322 6.17934273 1.0847802 9.4375 2.625 C13.52166145 4.20134302 15.79084491 4.01019722 20 3 C20.33 2.67 20.66 2.34 21 2 C22.99958364 1.95919217 25.00045254 1.95745644 27 2 C27.6875 3.75 27.6875 3.75 28 6 C26.51953125 8.140625 26.51953125 8.140625 25 10 C25.73605469 10.556875 26.47210938 11.11375 27.23046875 11.6875 C33.0301592 16.22305713 37.83997667 20.26956069 41 27 C41.36351562 27.73734375 41.72703125 28.4746875 42.1015625 29.234375 C43.27100286 32.83421749 43.3297687 36.25614569 43.3125 40 C43.32861328 40.69867187 43.34472656 41.39734375 43.36132812 42.1171875 C43.36556257 46.60569736 42.67405931 49.38755048 40 53 C38.35 52.67 36.7 52.34 35 52 C35.2475 50.576875 35.2475 50.576875 35.5 49.125 C36.72906435 39.86977303 36.52002409 32.90849605 31 25 C27.3248469 21.05810192 22.95253262 17.20112561 18 15 C13.15709097 15.50030052 10.87731194 18.82910013 7.90625 22.37109375 C0.56532664 32.49494912 0.64197461 45.23164712 2.49609375 57.203125 C2.84216667 58.79744715 3.22218002 60.38546948 3.66015625 61.95703125 C4.0849727 64.51081287 3.55951692 66.49040203 3 69 C3.36856864 71.23167185 3.36856864 71.23167185 4 73 C0.97280906 71.95436048 0.1025701 71.18965792 -1.44921875 68.3203125 C-1.85785156 67.26585937 -2.26648438 66.21140625 -2.6875 65.125 C-3.10386719 64.07570313 -3.52023437 63.02640625 -3.94921875 61.9453125 C-7.57815241 51.77350588 -7.90115917 37.33454177 -4.1171875 27.171875 C-0.96499115 21.04382895 3.04563439 15.76925745 8 11 C4.7 9.35 1.4 7.7 -2 6 C-1.34 4.02 -0.68 2.04 0 0 Z " fill="#234E50" transform="translate(347,535)"/>
<path d="M0 0 C0.99 1.98 0.99 1.98 2 4 C4.97 3.505 4.97 3.505 8 3 C14.1032668 18.80310155 16.0595205 35.05634446 9 51 C2.14891959 64.47691982 -7.40833133 73.35044561 -21.88671875 78.11328125 C-32.87937573 80.84568689 -46.15305343 80.76808767 -56.3515625 75.625 C-63.02025458 71.53329513 -69.49466609 67.53694477 -74 61 C-73.75 58.1875 -73.75 58.1875 -73 56 C-71.02 55.505 -71.02 55.505 -69 55 C-68.41605469 55.76183594 -68.41605469 55.76183594 -67.8203125 56.5390625 C-61.33890222 64.51388529 -53.21829743 70.13642482 -42.76025391 71.23535156 C-29.47629475 71.98763118 -18.78193876 70.99658398 -8.125 62.3125 C1.0844733 53.3861389 6.03327323 41.35081358 6.5 28.5625 C6.24431181 20.46898543 3.97039559 12.72894942 0.8671875 5.28125 C0 3 0 3 0 0 Z " fill="#224E50" transform="translate(524,644)"/>
<path d="M0 0 C0.495 2.475 0.495 2.475 1 5 C-14.36221226 16.36553915 -32.72223388 22.24653934 -51.15673828 26.38916016 C-52.02927246 26.58558105 -52.90180664 26.78200195 -53.80078125 26.984375 C-54.58622314 27.15678711 -55.37166504 27.32919922 -56.1809082 27.50683594 C-58.00536982 27.83955306 -58.00536982 27.83955306 -59 29 C-61.52587513 29.43300716 -64.03979382 29.81176465 -66.578125 30.15625 C-67.34171326 30.2634436 -68.10530151 30.37063721 -68.89202881 30.4810791 C-71.34415324 30.82467296 -73.7970162 31.16260074 -76.25 31.5 C-78.68856057 31.83832802 -81.12694534 32.17785517 -83.56512451 32.5189209 C-85.08411956 32.73109621 -86.60335767 32.94154052 -88.12286377 33.15002441 C-91.01168265 33.55115884 -93.87542839 33.97428874 -96.73242188 34.56396484 C-99.00495325 35.00095247 -101.07935326 35.12919952 -103.390625 35.1328125 C-104.18210937 35.13410156 -104.97359375 35.13539063 -105.7890625 35.13671875 C-107.00722656 35.13091797 -107.00722656 35.13091797 -108.25 35.125 C-109.49136719 35.13080078 -109.49136719 35.13080078 -110.7578125 35.13671875 C-116.87330665 35.12669335 -116.87330665 35.12669335 -118 34 C-118.125 31.5 -118.125 31.5 -118 29 C-116.42364042 27.42364042 -114.77909377 27.80015207 -112.5859375 27.7109375 C-85.67681222 26.30620511 -57.39778764 22.30007224 -32 13 C-31.32195312 12.75926758 -30.64390625 12.51853516 -29.9453125 12.27050781 C-21.9798243 9.41315596 -14.70615425 5.92751157 -7.5859375 1.3203125 C-4.78510934 -0.10971759 -3.09747235 -0.27955527 0 0 Z " fill="#274F4F" transform="translate(506,654)"/>
<path d="M0 0 C0.66 0 1.32 0 2 0 C2.51046875 1.17755859 2.51046875 1.17755859 3.03125 2.37890625 C8.05320028 13.26425062 13.78827324 18.82155554 25 23 C25 23.66 25 24.32 25 25 C24.21496094 25.3403125 23.42992187 25.680625 22.62109375 26.03125 C11.73574938 31.05320028 6.17844446 36.78827324 2 48 C1.34 48 0.68 48 0 48 C-0.3403125 47.21496094 -0.680625 46.42992187 -1.03125 45.62109375 C-6.05320028 34.73574938 -11.78827324 29.17844446 -23 25 C-23 24.34 -23 23.68 -23 23 C-22.21496094 22.6596875 -21.42992187 22.319375 -20.62109375 21.96875 C-9.73574938 16.94679972 -4.17844446 11.21172676 0 0 Z " fill="#7D7D7D" transform="translate(967,944)"/>
<path d="M0 0 C3.67902401 3.22789633 5.47491554 6.18847014 6.21875 11.04296875 C6.52100262 17.08802122 5.50714967 20.80597083 1.84765625 25.62109375 C-2.19541473 29.77056134 -5.7801447 29.89875607 -11.33984375 29.99609375 C-17.69130479 29.92845306 -17.69130479 29.92845306 -21.15234375 27.62109375 C-21.33984375 24.99609375 -21.33984375 24.99609375 -21.15234375 22.62109375 C-17.68668541 21.69691819 -14.63896925 21.65656326 -11.08984375 21.80859375 C-7.7876603 21.82335761 -6.44566758 21.78870737 -3.52734375 20.12109375 C-1.59691467 16.61122269 -1.2699179 13.47307442 -2.15234375 9.62109375 C-7.15069247 3.0056322 -14.26562259 0.80815113 -22.15234375 -0.37890625 C-26.51098857 -0.60566656 -30.8518849 -0.56936322 -35.21484375 -0.50390625 C-36.94250977 -0.49037109 -36.94250977 -0.49037109 -38.70507812 -0.4765625 C-41.52105568 -0.45319339 -44.33658533 -0.4204319 -47.15234375 -0.37890625 C-47.15234375 -2.02890625 -47.15234375 -3.67890625 -47.15234375 -5.37890625 C-33.7506937 -13.41989628 -11.80472882 -8.59110028 0 0 Z " fill="#264E4F" transform="translate(423.15234375,631.37890625)"/>
<path d="M0 0 C1.67542976 0.28604898 3.34385343 0.61781233 5 1 C6.13444935 14.31087237 2.32865415 28.39811319 -6 39 C-8.47319457 41.65829853 -11.054777 43.88101322 -14 46 C-14.59296875 46.43441406 -15.1859375 46.86882813 -15.796875 47.31640625 C-21.88467982 51.04973955 -29.08524643 50.91701033 -36 50 C-38.92578125 48.47265625 -38.92578125 48.47265625 -41 47 C-40.67 45.68 -40.34 44.36 -40 43 C-38.96101562 42.98582031 -37.92203125 42.97164062 -36.8515625 42.95703125 C-28.49227634 42.7242156 -20.81094955 42.44616004 -14 37 C-11.47832425 34.22067477 -9.7025587 31.33529638 -8 28 C-7.62230469 27.27167969 -7.24460937 26.54335938 -6.85546875 25.79296875 C-3.75823226 18.98368852 -2.75761719 11.79654858 -1.61328125 4.46484375 C-1 1 -1 1 0 0 Z " fill="#274E4F" transform="translate(704,504)"/>
<path d="M0 0 C5.1199033 2.19424427 7.82885121 6.24600159 9.8828125 11.3515625 C11.69616718 18.17079769 11.24158976 25.31804992 11.0625 32.3125 C4.37828223 32.42080908 0.65184769 30.83387581 -4.30859375 26.39453125 C-8.4795442 21.06331641 -8.42778826 14.82931534 -8.31640625 8.33203125 C-7.9375 5.3125 -7.9375 5.3125 -5.8125 1.9375 C-2.9375 0.3125 -2.9375 0.3125 0 0 Z " fill="#CD8142" transform="translate(635.9375,509.6875)"/>
<path d="M0 0 C1.8515625 0.7421875 1.8515625 0.7421875 2.8515625 2.7421875 C4.01608667 17.46100945 4.01608667 17.46100945 -1.1484375 23.7421875 C-3.73803317 25.80058406 -5.48331005 26.61240653 -8.7109375 27.2421875 C-11.1484375 26.7421875 -11.1484375 26.7421875 -13.4609375 24.7421875 C-15.60738686 20.92627752 -16.13590962 17.95590441 -15.1484375 13.7421875 C-12.60525174 8.35926076 -6.88110953 -0.82573314 0 0 Z " fill="#CD8141" transform="translate(365.1484375,637.2578125)"/>
<path d="M0 0 C6.51989058 -0.54332422 11.67614617 -0.04881321 17 4 C20.47372027 7.8210923 23.85819705 11.73115276 24.1875 17 C24 20 24 20 22 22 C18.33382373 22.49993313 16.37294752 22.19044129 13.0625 20.5 C7.0372274 15.58141012 2.47773521 10.43320564 0 3 C0 2.01 0 1.02 0 0 Z " fill="#CC803F" transform="translate(353,486)"/>
<path d="M0 0 C-1.42353524 3.33136597 -3.1335313 5.27664757 -5.875 7.625 C-6.55304688 8.21539063 -7.23109375 8.80578125 -7.9296875 9.4140625 C-12.74828587 13.10529068 -16.04028558 13.3844977 -22 13 C-22.66 12.34 -23.32 11.68 -24 11 C-23.91253087 7.06388903 -23.26039644 5.31826231 -20.75 2.25 C-14.4872312 -2.87408356 -7.29126081 -3.6456304 0 0 Z " fill="#C78143" transform="translate(495,616)"/>
<path d="M0 0 C6.23097736 0.53715322 10.65360452 1.65752317 15.875 5.3125 C17.61569247 7.92353871 17.38870736 9.95512571 17 13 C14 15 14 15 10.625 15 C5.98653465 13.72042335 4.65475752 11.94421118 2 8 C0.52787222 4.98564312 0 3.36369412 0 0 Z " fill="#C8813F" transform="translate(444,292)"/>
<path d="M0 0 C0.66 0 1.32 0 2 0 C2.99 3.3 3.98 6.6 5 10 C5.99 9.67 6.98 9.34 8 9 C8.33 7.68 8.66 6.36 9 5 C10.32 10.28 11.64 15.56 13 21 C12.34 21 11.68 21 11 21 C10.67 19.35 10.34 17.7 10 16 C9.01 17.98 8.02 19.96 7 22 C4.89734696 19.89734696 4.51868443 18.96227255 3.7109375 16.19140625 C3.49179687 15.44439453 3.27265625 14.69738281 3.046875 13.92773438 C2.71429687 12.75694336 2.71429687 12.75694336 2.375 11.5625 C2.14554688 10.78583984 1.91609375 10.00917969 1.6796875 9.20898438 C0.74841687 5.99111177 0 3.37360973 0 0 Z " fill="#32534F" transform="translate(521,350)"/>
<path d="M0 0 C24.63242418 -0.45521934 24.63242418 -0.45521934 33 4 C30.99420208 6.71372659 29.82724777 7.03939963 26.4375 7.8125 C25.303125 7.874375 24.16875 7.93625 23 8 C22.34 7.34 21.68 6.68 21 6 C21 4.68 21 3.36 21 2 C14.07 1.67 7.14 1.34 0 1 C0 0.67 0 0.34 0 0 Z " fill="#365552" transform="translate(578,250)"/>
<path d="M0 0 C0.33 0 0.66 0 1 0 C1.01417969 0.76183594 1.02835937 1.52367187 1.04296875 2.30859375 C1.38678354 9.7517193 2.7863439 14.84277559 7 21 C6.34 21.33 5.68 21.66 5 22 C5.33 23.32 5.66 24.64 6 26 C3.27425729 25.62669176 2.19177915 25.20805399 0.296875 23.15234375 C-0.21359375 22.42144531 -0.7240625 21.69054687 -1.25 20.9375 C-1.77078125 20.20402344 -2.2915625 19.47054687 -2.828125 18.71484375 C-3.21484375 18.14894531 -3.6015625 17.58304688 -4 17 C-3.34515625 16.65324219 -2.6903125 16.30648437 -2.015625 15.94921875 C0.35068892 14.07279848 0.35068892 14.07279848 0.390625 10.64453125 C0.34421875 9.37996094 0.2978125 8.11539063 0.25 6.8125 C0.21390625 5.54019531 0.1778125 4.26789063 0.140625 2.95703125 C0.09421875 1.98121094 0.0478125 1.00539063 0 0 Z " fill="#345451" transform="translate(329,506)"/>
<path d="M0 0 C2.02408755 0.09002398 4.04544287 0.24641038 6.0625 0.4375 C7.71958984 0.59025391 7.71958984 0.59025391 9.41015625 0.74609375 C10.26480469 0.82988281 11.11945313 0.91367187 12 1 C12 1.66 12 2.32 12 3 C11.01 3.33 10.02 3.66 9 4 C8.26676204 6.01508358 8.26676204 6.01508358 8 8 C2.375 8.25 2.375 8.25 -1 6 C-1.25 3.4375 -1.25 3.4375 -1 1 C-0.67 0.67 -0.34 0.34 0 0 Z " fill="#315551" transform="translate(403,653)"/>
<path d="M0 0 C2.81645906 3.18382329 3.72317437 5.75534029 4 10 C3.34 10.66 2.68 11.32 2 12 C-0.015625 11.91015625 -0.015625 11.91015625 -2 11 C-3.046875 8.93359375 -3.046875 8.93359375 -3.75 6.4375 C-3.99234375 5.61121094 -4.2346875 4.78492188 -4.484375 3.93359375 C-4.65453125 3.29550781 -4.8246875 2.65742188 -5 2 C-4.34 2 -3.68 2 -3 2 C-2.67 2.99 -2.34 3.98 -2 5 C-1.34 3.35 -0.68 1.7 0 0 Z " fill="#315653" transform="translate(454,361)"/>
<path d="M0 0 C2.5 1 2.5 1 4 2 C2.22555028 4.24606427 1.41647515 4.95081002 -1.48046875 5.29296875 C-2.82044922 5.24076172 -2.82044922 5.24076172 -4.1875 5.1875 C-5.53908203 5.14689453 -5.53908203 5.14689453 -6.91796875 5.10546875 C-7.60503906 5.07066406 -8.29210937 5.03585937 -9 5 C-9.33 3.68 -9.66 2.36 -10 1 C-6.83013832 -0.58493084 -3.45967739 -0.2940042 0 0 Z " fill="#C78346" transform="translate(406,528)"/>
<path d="M0 0 C3.1894996 4.7842494 4.26863974 8.22424557 4 14 C2.35 14 0.7 14 -1 14 C-1.99 11.69 -2.98 9.38 -4 7 C-2.35 6.67 -0.7 6.34 1 6 C0.67 4.02 0.34 2.04 0 0 Z " fill="#2B5351" transform="translate(534,372)"/>
<path d="M0 0 C2.97 0.99 5.94 1.98 9 3 C8.67 4.32 8.34 5.64 8 7 C4 9 4 9 0.875 8.0625 C-0.07375 7.711875 -1.0225 7.36125 -2 7 C-1.34 4.69 -0.68 2.38 0 0 Z " fill="#2E5352" transform="translate(451,286)"/>
<path d="M0 0 C1.57554035 2.88628401 2.46276373 5.53342384 3.125 8.75 C3.29257812 9.54921875 3.46015625 10.3484375 3.6328125 11.171875 C3.81457031 12.07679688 3.81457031 12.07679688 4 13 C3.01 12.67 2.02 12.34 1 12 C0.67 12.66 0.34 13.32 0 14 C-0.99 14 -1.98 14 -3 14 C-3.66 11.69 -4.32 9.38 -5 7 C-4.34 7 -3.68 7 -3 7 C-2.67 7.99 -2.34 8.98 -2 10 C-0.41727399 8.41727399 -0.65264253 6.61965997 -0.4375 4.4375 C-0.35371094 3.61121094 -0.26992188 2.78492188 -0.18359375 1.93359375 C-0.12300781 1.29550781 -0.06242187 0.65742188 0 0 Z " fill="#325754" transform="translate(496,373)"/>
<path d="M0 0 C2.72426311 2.35277269 3.8141763 4.62496331 5 8 C3.02 8.66 1.04 9.32 -1 10 C-1.99 8.02 -2.98 6.04 -4 4 C-3.34 4 -2.68 4 -2 4 C-2 3.34 -2 2.68 -2 2 C-1.34 2 -0.68 2 0 2 C0 1.34 0 0.68 0 0 Z " fill="#2E5958" transform="translate(647,280)"/>
<path d="M0 0 C0.66 0.33 1.32 0.66 2 1 C1.67 1.66 1.34 2.32 1 3 C1 3.99 1 4.98 1 6 C-0.4609375 7.38671875 -0.4609375 7.38671875 -2.375 8.6875 C-3.31472656 9.34298828 -3.31472656 9.34298828 -4.2734375 10.01171875 C-6 11 -6 11 -8 11 C-6.68206814 5.33289301 -4.51290803 3.33562767 0 0 Z " fill="#205457" transform="translate(519,703)"/>
<path d="M0 0 C0.66 0.33 1.32 0.66 2 1 C-2.62 5.62 -7.24 10.24 -12 15 C-12.66 14.67 -13.32 14.34 -14 14 C-12.42100123 12.22513306 -10.83707231 10.45512408 -9.25 8.6875 C-8.8065625 8.18798828 -8.363125 7.68847656 -7.90625 7.17382812 C-5.453615 4.45068191 -3.02719984 2.07235877 0 0 Z " fill="#C2793E" transform="translate(432,580)"/>
<path d="M0 0 C5.55010225 1.44785276 5.55010225 1.44785276 7.375 3.6875 C8.22470496 6.83140837 8.12455824 9.76148579 8 13 C5.81302498 10.20375042 4.00847187 7.36692128 2.3125 4.25 C1.65701172 3.05117188 1.65701172 3.05117188 0.98828125 1.828125 C0.49908203 0.92320312 0.49908203 0.92320312 0 0 Z " fill="#C17E46" transform="translate(522,630)"/>
<path d="M0 0 C2.18975773 3.28463659 2.99806563 6.20696275 4 10 C2.68 10 1.36 10 0 10 C0.33 12.64 0.66 15.28 1 18 C-1.6855594 15.3144406 -2.06049974 12.62378672 -3 9 C-2.34 9 -1.68 9 -1 9 C-0.67 6.03 -0.34 3.06 0 0 Z " fill="#355450" transform="translate(558,537)"/>
<path d="M0 0 C-3.49359465 3.59634744 -7.11098131 6.83451967 -11 10 C-9.26873217 3.65201794 -7.20700882 -0.80077876 0 0 Z " fill="#1F494B" transform="translate(504,465)"/>
<path d="M0 0 C0.66 0 1.32 0 2 0 C2.33 2.31 2.66 4.62 3 7 C1.34385343 7.38218767 -0.32457024 7.71395102 -2 8 C-3 7 -3 7 -3.0625 4.4375 C-3.041875 3.633125 -3.02125 2.82875 -3 2 C-2.34 2 -1.68 2 -1 2 C-0.67 1.34 -0.34 0.68 0 0 Z " fill="#1B494B" transform="translate(464,801)"/>
<path d="M0 0 C2 0.3125 2 0.3125 4 1 C4.33 1.66 4.66 2.32 5 3 C3.68 3 2.36 3 1 3 C1.33 4.65 1.66 6.3 2 8 C1.01 8.495 1.01 8.495 0 9 C-2 6 -2 6 -1.6875 3.375 C-1 1 -1 1 0 0 Z " fill="#3C5751" transform="translate(452,699)"/>
<path d="M0 0 C0.66666667 1.33333333 1.33333333 2.66666667 2 4 C2.53625 5.03125 3.0725 6.0625 3.625 7.125 C5 10 5 10 5 12 C4.01 11.67 3.02 11.34 2 11 C2.33 10.34 2.66 9.68 3 9 C2.01 8.67 1.02 8.34 0 8 C0 5.36 0 2.72 0 0 Z M-2 11 C-0.02 11.99 -0.02 11.99 2 13 C1.34 13 0.68 13 0 13 C-0.33 13.66 -0.66 14.32 -1 15 C-1.33 13.68 -1.66 12.36 -2 11 Z " fill="#375752" transform="translate(564,313)"/>
<path d="M0 0 C0.66 0.33 1.32 0.66 2 1 C0 5 0 5 -1.03125 6.8125 C-2.15674272 9.35393517 -2.40675506 11.48556409 -2.625 14.25 C-2.69976563 15.14203125 -2.77453125 16.0340625 -2.8515625 16.953125 C-2.90054688 17.62859375 -2.94953125 18.3040625 -3 19 C-3.33 19 -3.66 19 -4 19 C-4.38167939 5.8956743 -4.38167939 5.8956743 -2 1 C-1.34 0.67 -0.68 0.34 0 0 Z " fill="#32524D" transform="translate(561,294)"/>
<path d="M0 0 C2.0625 0.4375 2.0625 0.4375 4 1 C3.51789062 1.38671875 3.03578125 1.7734375 2.5390625 2.171875 C1.90742187 2.69265625 1.27578125 3.2134375 0.625 3.75 C-0.31472656 4.51570312 -0.31472656 4.51570312 -1.2734375 5.296875 C-3.08312318 7.08199481 -4.00117455 8.67949644 -5 11 C-5.66 10.67 -6.32 10.34 -7 10 C-6.02223933 8.51990357 -5.0427506 7.04094856 -4.0625 5.5625 C-3.51722656 4.73878906 -2.97195313 3.91507813 -2.41015625 3.06640625 C-1 1 -1 1 0 0 Z " fill="#2F514D" transform="translate(563,648)"/>
<path d="M0 0 C2.125 0.375 2.125 0.375 4 1 C3.67 2.32 3.34 3.64 3 5 C3.99 5.33 4.98 5.66 6 6 C4.02 6 2.04 6 0 6 C-0.66 4.68 -1.32 3.36 -2 2 C-1.34 1.34 -0.68 0.68 0 0 Z " fill="#335754" transform="translate(642,599)"/>
<path d="M0 0 C0 0.66 0 1.32 0 2 C-1.98600337 3.3540932 -3.98817543 4.68457624 -6 6 C-6.7425 6.7425 -7.485 7.485 -8.25 8.25 C-8.8275 8.8275 -9.405 9.405 -10 10 C-10.66 10 -11.32 10 -12 10 C-10.58426179 6.60812721 -8.95769034 4.90302459 -6 2.75 C-5.29875 2.22921875 -4.5975 1.7084375 -3.875 1.171875 C-2 0 -2 0 0 0 Z " fill="#BE7B40" transform="translate(510,467)"/>
<path d="M0 0 C0.99 0.33 1.98 0.66 3 1 C1.12050295 4.57104439 -0.17053157 6.54744301 -4 8 C-4.33 7.34 -4.66 6.68 -5 6 C-4.34 6 -3.68 6 -3 6 C-2.67 4.68 -2.34 3.36 -2 2 C-1.34 2 -0.68 2 0 2 C0 1.34 0 0.68 0 0 Z " fill="#C07739" transform="translate(67,85)"/>
<path d="M0 0 C2.97 0.495 2.97 0.495 6 1 C5.67 1.99 5.34 2.98 5 4 C2.69 3.67 0.38 3.34 -2 3 C-1.34 2.01 -0.68 1.02 0 0 Z " fill="#AF824C" transform="translate(363,415)"/>
<path d="M0 0 C-1.15173355 2.46800047 -2.04783565 4.04783565 -4 6 C-4.39764263 7.98821313 -4.73775349 9.98944339 -5 12 C-5.33 12 -5.66 12 -6 12 C-6.32644414 7.83783725 -6.40650982 5.63686538 -4.125 2.0625 C-2 0 -2 0 0 0 Z " fill="#355351" transform="translate(395,523)"/>
<path d="M0 0 C2.31 0 4.62 0 7 0 C6.67 0.99 6.34 1.98 6 3 C4.35 3 2.7 3 1 3 C0.67 2.01 0.34 1.02 0 0 Z " fill="#BA7D43" transform="translate(353,661)"/>
<path d="M0 0 C0.99 0.33 1.98 0.66 3 1 C2.01 2.485 2.01 2.485 1 4 C0.01 4 -0.98 4 -2 4 C-2.33 4.99 -2.66 5.98 -3 7 C-3.1875 4.625 -3.1875 4.625 -3 2 C-2.01 1.34 -1.02 0.68 0 0 Z " fill="#BE7C44" transform="translate(591,497)"/>
<path d="M0 0 C3.465 1.98 3.465 1.98 7 4 C6.01 4.66 5.02 5.32 4 6 C3.01 5.67 2.02 5.34 1 5 C0.67 3.35 0.34 1.7 0 0 Z " fill="#1A494D" transform="translate(554,766)"/>
<path d="M0 0 C1.125 3.75 1.125 3.75 0 6 C-0.66 6 -1.32 6 -2 6 C-2.66 4.35 -3.32 2.7 -4 1 C-2.68 0.67 -1.36 0.34 0 0 Z " fill="#1C474D" transform="translate(443,556)"/>
<path d="M0 0 C1.32 0.33 2.64 0.66 4 1 C4 1.66 4 2.32 4 3 C4.66 3.33 5.32 3.66 6 4 C3.36 3.67 0.72 3.34 -2 3 C-1.34 2.67 -0.68 2.34 0 2 C0 1.34 0 0.68 0 0 Z " fill="#3D5348" transform="translate(446,427)"/>
<path d="M0 0 C0.33 1.32 0.66 2.64 1 4 C-1.97 6.475 -1.97 6.475 -5 9 C-3.7508258 5.54074837 -2.32472205 2.85306797 0 0 Z " fill="#395953" transform="translate(397,403)"/>
</svg>
